<?xml version="1.0" encoding="UTF-8"?><svg id="Layer_1" xmlns="http://www.w3.org/2000/svg" viewBox="0 0 421.51 477.99"><defs><style>.cls-1{fill:#fff;}.cls-1,.cls-2{stroke-width:0px;}.cls-2{fill:#808386;}</style></defs><polyline id="a-floor" class="cls-2" points="231.08 477.99 375.37 477.99 375.37 438.05 386.39 438.05 386.39 338.87 401.89 338.87 401.89 328.54 421.51 328.54 421.51 40.64 376.06 40.64 376.06 0 293.4 0 293.4 40.64 0 40.64 0 135.34 145.84 135.34 145.84 154.96 0 154.96 0 224.03 145.84 224.03 145.84 243.65 52.17 243.65 52.17 328.54 185.27 328.54 185.27 477.99 220.05 477.99"/><path id="a-label" class="cls-1" d="M250.88,222.17l-2.21-6.59h-12.29l-2.16,6.59h-8.18l12.03-35.6h9.34l12.5,35.6h-9.02ZM243.87,200.97c-.58-1.74-1-3.38-1.37-4.96h-.11c-.37,1.58-.74,3.22-1.32,4.96l-2.74,8.12h8.28l-2.74-8.12Z"/></svg>