<?xml version="1.0" encoding="UTF-8"?><svg id="Layer_1" xmlns="http://www.w3.org/2000/svg" viewBox="0 0 501.74 121.06"><defs><style>.cls-1{fill:#fff;}.cls-1,.cls-2{stroke-width:0px;}.cls-2{fill:#808386;}</style></defs><path id="b-floor" class="cls-2" d="M501.74,31.91V8.6l-36.31,36.31h-1.04v3.12h-34.7V0h-215.87v15.38h-3.84v32.67h-.64v5.22c-2.39-.8-11.09-3.62-15.21-3.62-4.8,0-15.53,3.84-15.53,3.84V15.38h-3.85V0h-103.13v44.28h-3.84v9.2s-11.05-3.84-15.86-3.84c-2.42,0-6.32.97-9.61,1.94-2.08.61-3.91,1.21-4.96,1.57v-8.23h-1.04L0,8.6v23.31l14.29,14.24v18.54H1.16v56.37h500.28V48.04h-13.99v-1.89l14.29-14.24Z"/><path id="b-label" class="cls-1" d="M318.77,82.95c-2.01,0-5.74-.1-10.55-.1v-33.06c3.04-.15,7.8-.25,11.87-.25,7.11,0,11.38,2.8,11.38,8.34,0,3.09-1.62,5.89-4.52,7.16v.15c3.39.89,5.45,4.02,5.45,7.31,0,5.3-3.88,10.45-13.64,10.45M318.82,55.68c-1.18,0-2.01.05-2.94.1v7.26c.64.05,1.37.05,2.26.05,3.73,0,5.25-1.52,5.25-4.02,0-2.11-1.42-3.38-4.56-3.38M318.43,68.72c-.39,0-1.96,0-2.55.05v7.8c.64.1,1.86.15,2.99.15,3.43,0,5.35-1.57,5.35-4.12s-2.21-3.88-5.79-3.88"/></svg>