<?xml version="1.0" encoding="UTF-8"?><svg id="Layer_1" xmlns="http://www.w3.org/2000/svg" viewBox="0 0 478.47 478.47"><defs><style>.cls-1{fill:#fffffe;}.cls-1,.cls-2,.cls-3{stroke-width:0px;}.cls-2{fill:#fff;}.cls-3{fill:#ea571a;}</style></defs><circle class="cls-3" cx="239.24" cy="239.24" r="239.24"/><path class="cls-2" d="M140.91,240.46c0-35.01,0-70.03,0-105.04,0-19.29,11.91-33.81,31.18-34.6,29.8-1.23,59.76-2.16,89.5.44,31.1,2.72,55.72,25.51,62.76,55.54,7.08,30.23-4.97,61.06-30.79,78.15-3.79,2.51-5.67,3.55-1.22,7.88,18.22,17.74,23.24,39.29,14.06,62.86-9.23,23.7-27.87,35.74-53.2,36.44-20.19.56-40.41.18-60.62.08-8.03-.04-12.38-3.79-12.4-10.17-.03-6.26,4.49-9.92,12.48-9.93,19.54-.03,39.07.01,58.61-.01,22.22-.03,39.23-16.28,39.3-37.5.06-21.02-17.12-37.37-39.31-37.39-13.02-.01-26.05.05-39.07-.02-8.11-.04-12.14-3.55-12.08-10.24.06-6.54,4.19-9.91,12.4-9.94,13.25-.04,26.5,0,39.74-.02,29.76-.05,53.68-23.16,54.08-52.22.41-29.29-22.64-53.58-52.21-54.13-26.04-.48-52.09-.18-78.14-.06-9.56.04-15.08,5.61-15.09,15.16-.06,70.25-.06,140.5,0,210.76,0,9.7,5.39,14.96,15.08,14.98,25.6.07,51.19.03,76.79.02,56.79,0,93.86-58.63,69.64-110.15-.29-.61-.6-1.2-.89-1.81-3.39-7.06-2.17-13.11,3.17-15.73,5.64-2.77,11.26-.33,14.82,6.44,17.73,33.76,12.61,78.36-12.55,107.28-19.67,22.61-44.57,34.12-74.63,34.16-25.6.03-51.2.04-76.79,0-20.42-.04-34.58-14.32-34.59-34.84-.02-35.46,0-70.93,0-106.39Z"/><path class="cls-1" d="M256.89,186.54c7.44-2.95,10.21-6.98,9.65-14.08-.49-6.24-4.68-10.72-11.6-12.05-2.39-.46-4.89-.53-7.34-.53-18.62-.04-37.24,0-55.86-.04-7.46-.02-11.69-3.72-11.61-9.93.08-5.83,4.39-9.74,11.31-9.77,21.09-.08,42.18-.27,63.27.05,18.11.28,32.37,15.57,32.22,33.84-.15,18.4-14.39,33.01-32.64,33.4-5.16.11-10.33.22-15.48-.1-5.77-.36-8.99-3.66-9.18-9.54-.19-5.69,3.5-9.63,9.36-10.18,5.97-.57,12.08,1.18,17.94-1.09h-.03Z"/></svg>