<?xml version="1.0" encoding="utf-8"?>
<!-- Generator: Adobe Illustrator 28.3.0, SVG Export Plug-In . SVG Version: 6.00 Build 0)  -->
<svg version="1.1" id="Layer_1" xmlns="http://www.w3.org/2000/svg" xmlns:xlink="http://www.w3.org/1999/xlink" x="0px" y="0px"
	 viewBox="0 0 478.5 478.5" style="enable-background:new 0 0 478.5 478.5;" xml:space="preserve">
<style type="text/css">
	.st0{fill:#FFFFFF;}
</style>
<path class="st0" d="M71.5,240.3c0-58.2,0-116.5,0-174.7c0-32.1,19.8-56.2,51.9-57.6c49.6-2,99.4-3.6,148.9,0.7
	c51.7,4.5,92.7,42.4,104.4,92.4c11.8,50.3-8.3,101.6-51.2,130c-6.3,4.2-9.4,5.9-2,13.1c30.3,29.5,38.7,65.4,23.4,104.6
	c-15.4,39.4-46.4,59.5-88.5,60.6c-33.6,0.9-67.2,0.3-100.8,0.1c-13.4-0.1-20.6-6.3-20.6-16.9c0-10.4,7.5-16.5,20.8-16.5
	c32.5,0,65,0,97.5,0c37,0,65.3-27.1,65.4-62.4c0.1-35-28.5-62.2-65.4-62.2c-21.7,0-43.3,0.1-65,0c-13.5-0.1-20.2-5.9-20.1-17
	c0.1-10.9,7-16.5,20.6-16.5c22-0.1,44.1,0,66.1,0c49.5-0.1,89.3-38.5,90-86.9c0.7-48.7-37.7-89.1-86.9-90
	c-43.3-0.8-86.7-0.3-130-0.1c-15.9,0.1-25.1,9.3-25.1,25.2c-0.1,116.9-0.1,233.7,0,350.6c0,16.1,9,24.9,25.1,24.9
	c42.6,0.1,85.2,0,127.7,0c94.5,0,156.1-97.5,115.8-183.2c-0.5-1-1-2-1.5-3c-5.6-11.7-3.6-21.8,5.3-26.2c9.4-4.6,18.7-0.5,24.7,10.7
	c29.5,56.2,21,130.4-20.9,178.5c-32.7,37.6-74.1,56.8-124.1,56.8c-42.6,0-85.2,0.1-127.7,0c-34-0.1-57.5-23.8-57.5-58
	C71.6,358.3,71.6,299.3,71.5,240.3L71.5,240.3z"/>
<path class="st0" d="M264.5,150.6c12.4-4.9,17-11.6,16.1-23.4c-0.8-10.4-7.8-17.8-19.3-20c-4-0.8-8.1-0.9-12.2-0.9
	c-31-0.1-62,0-92.9-0.1c-12.4,0-19.4-6.2-19.3-16.5c0.1-9.7,7.3-16.2,18.8-16.3c35.1-0.1,70.2-0.4,105.3,0.1
	c30.1,0.5,53.8,25.9,53.6,56.3c-0.2,30.6-23.9,54.9-54.3,55.6c-8.6,0.2-17.2,0.4-25.8-0.2c-9.6-0.6-15-6.1-15.3-15.9
	c-0.3-9.5,5.8-16,15.6-16.9C244.6,151.5,254.8,154.4,264.5,150.6L264.5,150.6L264.5,150.6z"/>
</svg>
