<?xml version="1.0" encoding="UTF-8"?><svg id="Layer_1" xmlns="http://www.w3.org/2000/svg" viewBox="0 0 220.96 478.49"><defs><style>.cls-1{fill:#fff;}.cls-1,.cls-2{stroke-width:0px;}.cls-2{fill:#808386;}</style></defs><path id="c-floor" class="cls-2" d="M220.96,276.41V10.22h-78.44V0h-62.9v10.22H0v463.94h86.16c4.1,2.54,14.04,4.33,25.7,4.33s21.6-1.79,25.69-4.33h82.62v-197.75h.8Z"/><g id="c-label"><path class="cls-1" d="M68.11,364.29c-2.16,0-4.17-.28-5.82-.75l.44-3.46c1.69.66,3.62,1.06,5.58,1.06,3.08,0,5.74-1.26,5.74-4.52,0-5.99-11.99-3.62-11.99-12.08,0-4.37,3.3-7.51,9.28-7.51,1.53,0,3.3.15,4.8.51l-.43,3.19c-1.41-.44-3.03-.71-4.56-.71-3.62,0-5.35,1.65-5.35,4.13,0,5.7,12.16,3.66,12.16,11.99,0,4.77-3.9,8.15-9.84,8.15"/><path class="cls-1" d="M90.19,364.29c-5.35,0-8.77-3.07-8.77-9.96,0-5.74,3.62-10.3,9.52-10.3,5,0,8.77,2.76,8.77,9.8,0,5.9-3.74,10.46-9.52,10.46M90.62,346.98c-2.83,0-5.55,2.16-5.55,7s1.96,7.32,5.55,7.32c2.91,0,5.43-2.28,5.43-7.28,0-4.45-1.81-7.05-5.43-7.05"/><path class="cls-1" d="M117.14,363.94c0-1.18.08-2.95.32-4.13h-.08c-1.15,2.67-3.54,4.49-6.89,4.49-4.48,0-5.86-2.79-5.86-6.26v-13.65h3.5v12.59c0,2.76.79,4.41,3.35,4.41,3.23,0,5.55-3.31,5.55-7.64v-9.37h3.54v19.56h-3.42Z"/><path class="cls-1" d="M133.28,364.25c-4.01,0-5.23-1.65-5.23-5.86v-11.25h-4.01v-2.76h4.01v-6.34l3.54-.98v7.32h5.47v2.76h-5.47v9.99c0,3.23.64,4.09,2.79,4.09.91,0,1.77-.12,2.48-.31l.35,2.9c-1.15.28-2.68.43-3.94.43"/><path class="cls-1" d="M154.29,363.94v-12.59c0-2.76-.75-4.41-3.34-4.41-3.23,0-5.55,3.31-5.55,7.63v9.37h-3.54v-28.72h3.54v9.28c0,1.26-.08,2.83-.35,3.89l.08.04c1.13-2.68,3.54-4.41,6.8-4.41,4.49,0,5.9,2.79,5.9,6.25v13.65h-3.54Z"/><polygon class="cls-1" points="71.14 381.12 71.14 404.65 67.52 404.65 67.52 381.12 59.89 381.12 59.89 378.09 78.81 378.09 78.81 381.12 71.14 381.12"/><path class="cls-1" d="M86.02,405c-5.35,0-8.77-3.07-8.77-9.96,0-5.74,3.62-10.3,9.52-10.3,5,0,8.77,2.76,8.77,9.8,0,5.9-3.74,10.46-9.52,10.46M86.45,387.69c-2.83,0-5.55,2.16-5.55,7s1.96,7.32,5.55,7.32c2.91,0,5.43-2.28,5.43-7.28,0-4.45-1.81-7.05-5.43-7.05"/><path class="cls-1" d="M121.28,404.65h-3.97l-3.9-11.53c-.39-1.22-.75-2.52-1.1-3.89h-.04c-.39,1.73-.86,3.26-1.37,4.91l-3.28,10.51h-3.93l-6.02-19.56h3.9l2.99,10.43c.51,1.81,1.02,3.59,1.42,5.12h.03c.4-1.74.87-3.42,1.34-5.04l3.34-10.51h3.78l3.38,10.4c.75,2.43,1.14,3.69,1.5,5.19h.04c.39-1.65.79-3.08,1.33-5.04l3.15-10.55h3.73l-6.33,19.56Z"/><path class="cls-1" d="M146.11,394.97h-12.79c-.13,4.88,1.92,7.16,6.17,7.16,1.89,0,3.85-.39,5.59-1.14l.5,2.79c-1.96.78-4.32,1.22-6.76,1.22-5.94,0-9.17-3.15-9.17-10.03,0-5.83,3.26-10.23,8.81-10.23s7.75,3.66,7.75,8.02c0,.48-.04,1.42-.12,2.21M138.24,387.42c-2.56,0-4.41,1.85-4.84,5.03h9.21c.08-3.18-1.62-5.03-4.37-5.03"/><path class="cls-1" d="M161.02,388.24c-4.13-.75-6.1,2.29-6.1,8.54v7.87h-3.54v-19.55h3.42c0,1.22-.12,3.03-.44,4.64h.08c.82-2.72,2.83-5.39,6.72-5l-.15,3.5Z"/><path class="cls-1" d="M119.45,297.41c-29.99,0-38.06-20.35-38.06-38.78,0-26.38,14.33-44.2,41.19-44.2,5.66,0,11.69.72,16.61,2.28l-2.4,17.11c-4.58-1.69-9.52-2.53-14.58-2.53-13.12,0-20.23,9.51-20.23,24.21,0,16.02,6.5,24.81,21.19,24.81,4.22,0,10-1.08,13.85-3.01l2.65,16.61c-5.78,2.17-13.25,3.5-20.23,3.5"/><path class="cls-1" d="M80.77,132.1l-9.96-16.47c-1.11-1.82-1.98-3.42-2.7-5.05.14,2.69.27,10,.27,14.37v7.15h-3.38v-25.67h4.64l9.84,16.16c.99,1.67,1.98,3.5,2.82,5.21-.12-3.19-.27-10.38-.27-14.83v-6.54h3.38v25.67h-4.64Z"/><path class="cls-1" d="M98.63,132.44c-5.17,0-8.48-2.97-8.48-9.62,0-5.55,3.5-9.96,9.2-9.96,4.82,0,8.48,2.66,8.48,9.47,0,5.7-3.62,10.11-9.21,10.11M99.05,115.71c-2.73,0-5.36,2.09-5.36,6.77s1.89,7.07,5.36,7.07c2.82,0,5.25-2.2,5.25-7.04,0-4.29-1.75-6.8-5.25-6.8"/><path class="cls-1" d="M121.89,116.25c-3.99-.72-5.9,2.2-5.9,8.25v7.6h-3.42v-18.89h3.31c0,1.18-.12,2.93-.43,4.49h.08c.8-2.62,2.74-5.21,6.5-4.83l-.14,3.39Z"/><path class="cls-1" d="M132.53,132.4c-3.88,0-5.06-1.59-5.06-5.66v-10.88h-3.88v-2.66h3.88v-6.12l3.42-.95v7.08h5.28v2.66h-5.28v9.66c0,3.12.61,3.95,2.69,3.95.87,0,1.71-.11,2.4-.3l.34,2.81c-1.1.27-2.58.42-3.8.42"/><path class="cls-1" d="M152.82,132.1v-12.17c0-2.66-.72-4.26-3.24-4.26-3.11,0-5.36,3.19-5.36,7.38v9.05h-3.42v-27.76h3.42v8.97c0,1.22-.08,2.74-.34,3.76l.08.04c1.1-2.59,3.42-4.26,6.58-4.26,4.33,0,5.7,2.69,5.7,6.05v13.19h-3.42Z"/><polygon class="cls-1" points="72.5 152.79 72.5 175.52 69 175.52 69 152.79 61.63 152.79 61.63 149.86 79.91 149.86 79.91 152.79 72.5 152.79"/><path class="cls-1" d="M86.86,175.87c-5.17,0-8.48-2.97-8.48-9.62,0-5.55,3.5-9.96,9.2-9.96,4.82,0,8.48,2.66,8.48,9.47,0,5.7-3.62,10.11-9.21,10.11M87.28,159.14c-2.73,0-5.36,2.09-5.36,6.77s1.89,7.07,5.36,7.07c2.82,0,5.25-2.2,5.25-7.04,0-4.29-1.75-6.8-5.25-6.8"/><path class="cls-1" d="M120.92,175.53h-3.84l-3.76-11.14c-.38-1.18-.72-2.43-1.07-3.77h-.04c-.38,1.67-.84,3.16-1.33,4.75l-3.15,10.15h-3.8l-5.81-18.89h3.76l2.89,10.07c.49,1.75.99,3.46,1.37,4.94h.04c.39-1.67.84-3.31,1.3-4.87l3.23-10.15h3.65l3.27,10.04c.72,2.36,1.11,3.57,1.44,5.01h.04c.38-1.59.76-2.96,1.29-4.86l3.04-10.19h3.62l-6.12,18.89Z"/><path class="cls-1" d="M144.9,166.18h-12.35c-.11,4.71,1.86,6.92,5.97,6.92,1.82,0,3.72-.38,5.39-1.11l.5,2.7c-1.9.76-4.18,1.18-6.55,1.18-5.74,0-8.85-3.04-8.85-9.69,0-5.63,3.15-9.89,8.51-9.89s7.49,3.54,7.49,7.76c0,.45-.04,1.37-.11,2.13M137.3,158.87c-2.47,0-4.26,1.79-4.68,4.86h8.9c.08-3.07-1.55-4.86-4.22-4.86"/><path class="cls-1" d="M159.3,159.67c-3.99-.72-5.9,2.2-5.9,8.25v7.6h-3.42v-18.89h3.31c0,1.18-.12,2.93-.43,4.49h.08c.8-2.62,2.74-5.21,6.5-4.83l-.14,3.39Z"/></g></svg>