<?xml version="1.0" encoding="UTF-8"?><svg id="Layer_1" xmlns="http://www.w3.org/2000/svg" viewBox="0 0 423.74 497"><defs><style>.cls-1{fill:#fff;stroke-width:0px;}</style></defs><path class="cls-1" d="M310.57,496.99c-26.12,0-47.37-21.25-47.37-47.38V7.45h14.48c46.23,0,82.64,11.35,108.23,33.74,24.76,21.66,37.84,52.92,37.84,90.4v109.67c0,17.92-4.28,33.42-12.71,46.07-6.87,10.31-16.36,18.54-28.19,24.45-8.99,4.49-17.85,6.92-24.9,8.22v129.51c0,26.18-21.25,47.48-47.37,47.48h0ZM292.14,36.85v412.77c0,10.16,8.26,18.43,18.42,18.43s18.42-8.31,18.42-18.53v-157.08l14.44.14c.7-.01,14.3-.36,27.23-7.08,16.25-8.44,24.14-22.92,24.14-44.24v-109.67c0-57.34-36.3-90.62-102.65-94.75h0ZM113.17,496.99c-26.12,0-47.37-21.21-47.37-47.28v-217.21C28.42,225.69,0,192.87,0,153.52V0h28.95v153.52c0,28.31,22.99,51.33,51.26,51.33h65.94c28.26,0,51.26-23.03,51.26-51.33V0h28.95v153.52c0,39.34-28.42,72.17-65.8,78.98v217.21c0,26.07-21.25,47.28-47.37,47.28h0ZM94.75,233.8v215.92c0,10.11,8.26,18.32,18.42,18.32s18.42-8.39,18.42-18.32v-215.92h-36.85ZM160.55,131.6h-28.95V0h28.95v131.6ZM94.75,131.6h-28.95V0h28.95v131.6Z"/></svg>