<?xml version="1.0" encoding="UTF-8"?><svg id="Layer_1" xmlns="http://www.w3.org/2000/svg" viewBox="0 0 644 755.33"><defs><style>.cls-1{fill:#fa5507;stroke-width:0px;}</style></defs><path class="cls-1" d="M472,755.33c-39.7,0-72-32.3-72-72.01V11.33h22c70.26,0,125.6,17.25,164.49,51.28,37.63,32.92,57.51,80.43,57.51,137.39v166.67c0,27.23-6.5,50.79-19.32,70.02-10.44,15.67-24.86,28.17-42.84,37.16-13.66,6.83-27.13,10.52-37.84,12.5v196.83c0,39.79-32.3,72.16-72,72.16ZM444,56v627.33c0,15.44,12.56,28.01,28,28.01s28-12.63,28-28.16v-238.73l21.94.22c1.06-.02,21.73-.55,41.38-10.76,24.69-12.83,36.69-34.83,36.69-67.24v-166.67c0-87.15-55.17-137.72-156-144ZM172,755.33c-39.7,0-72-32.23-72-71.85v-330.12C43.2,343.01,0,293.12,0,233.32V0h44v233.32c0,43.02,34.94,78.01,77.9,78.01h100.21c42.95,0,77.9-35,77.9-78.01V0h44v233.32c0,59.79-43.2,109.68-100,120.04v330.12c0,39.62-32.3,71.85-72,71.85ZM144,355.33v328.15c0,15.36,12.56,27.85,28,27.85s28-12.75,28-27.85v-328.15h-56ZM244,200h-44V0h44v200ZM144,200h-44V0h44v200Z"/></svg>