<?xml version="1.0" encoding="UTF-8"?><svg id="Layer_1" xmlns="http://www.w3.org/2000/svg" viewBox="0 0 483.14 408.24"><defs><style>.cls-1{fill:#fff;}.cls-1,.cls-2{stroke-width:0px;}.cls-2{fill:#808386;}</style></defs><polygon id="d-floor" class="cls-2" points="3.06 16.06 3.06 30.71 33.91 38.74 64.13 31.49 97.88 52.24 88.71 61.25 51.76 80.03 46.11 80.03 46.11 84.86 36.97 84.86 36.97 192.55 64.76 192.55 72.47 233.36 78.58 233.22 82.13 245.9 97.73 243.34 121.66 283.03 123.44 283.19 132.11 293.8 141.12 289.32 158.14 314.38 203.16 330.43 343.63 282.87 474.14 408.24 483.14 403.75 483.14 9 454.86 9 454.86 0 258.77 0 0 16.06 3.06 16.06"/><g id="d-label"><path class="cls-1" d="M285.16,180.94c-13.27,0-25.81-.56-37.4-1.13V54.15c9.9-.56,26-1.12,43.01-1.12,37.96,0,63.2,16.45,63.2,61.34s-27.68,66.57-68.82,66.57M288.91,77.53c-4.86,0-8.79,0-11.97.37v77.24c2.42.38,6.36.75,10.85.75,20.01,0,34.96-12.34,34.96-39.27,0-23.75-7.67-39.09-33.85-39.09"/><path class="cls-1" d="M152.73,250.8c-5.47,0-10.24-.24-14.7-.4v-52.63c4.14-.15,10.55-.4,17.04-.4,16.35,0,26.75,7.28,26.75,25.82s-11.89,27.6-29.09,27.6M154.38,205.92c-2.35,0-4.54.09-6.18.22v35.59c1.41.23,3.52.39,5.55.39,9.93,0,17.13-5.63,17.13-18.13,0-11.34-4.46-18.07-16.5-18.07"/><path class="cls-1" d="M223.7,250.49l-3.67-10.8h-19.95l-3.68,10.8h-10.24l18.45-52.79h11.49l18.85,52.79h-11.26ZM212.2,216.63c-.94-2.59-1.64-5.01-2.19-7.28h-.08c-.63,2.27-1.25,4.69-2.11,7.28l-5.23,15.01h14.85l-5.24-15.01Z"/><path class="cls-1" d="M259.48,231.79v18.69h-10.16v-18.61l-16.5-34.18h11.11l6.95,15.18c1.41,3.13,2.59,6.02,3.6,8.76h.16c1.09-3.05,2.65-6.43,4.22-9.78l6.65-14.17h10.79l-16.81,34.1Z"/><path class="cls-1" d="M303.7,251.11c-18.45,0-24.4-12.2-24.4-25.33,0-16.73,8.76-28.54,26.43-28.54,3.76,0,7.83.54,11.26,1.56l-1.41,9.3c-3.2-1.16-6.8-1.79-10.39-1.79-9.85,0-14.7,7.42-14.7,17.74,0,11.43,4.77,17.83,15.4,17.83,3.2,0,7.28-.85,10.01-2.18l1.56,8.98c-3.91,1.49-8.84,2.43-13.76,2.43"/><path class="cls-1" d="M361.53,250.49l-3.68-10.8h-19.94l-3.68,10.8h-10.24l18.45-52.79h11.49l18.85,52.79h-11.26ZM350.03,216.63c-.94-2.59-1.64-5.01-2.19-7.28h-.08c-.63,2.27-1.25,4.69-2.11,7.28l-5.23,15.01h14.85l-5.24-15.01Z"/><path class="cls-1" d="M407.47,250.49l-14.23-21.81h-.86v21.81h-10.16v-52.78c4.14-.24,9.06-.31,15.17-.31,11.65,0,19.16,4.05,19.16,14.85,0,7.83-5.64,13.45-12.98,14.7,1.41,1.96,2.96,3.91,4.21,5.78l12.28,17.76h-12.59ZM396.37,205.69c-1.49,0-2.97.08-3.99.22v15.25c.7.09,2.1.16,3.68.16,6.1,0,9.85-3.13,9.85-8.06s-3.13-7.58-9.54-7.58"/><polygon class="cls-1" points="430.9 250.49 430.9 197.7 459.6 197.7 459.6 206.23 441.06 206.23 441.06 219.21 458.65 219.21 458.65 227.49 441.06 227.49 441.06 241.8 459.6 241.8 459.6 250.49 430.9 250.49"/></g></svg>