<?xml version="1.0" encoding="UTF-8"?><svg id="Layer_1" xmlns="http://www.w3.org/2000/svg" viewBox="0 0 416.78 468.98"><defs><style>.cls-1{fill:#ed4c21;stroke-width:0px;}</style></defs><polygon class="cls-1" points="356.42 149.2 375.99 151.74 398.33 66.7 309.93 76.47 308.91 98.66 372.05 89.76 356.42 149.2"/><path class="cls-1" d="M289.6,162.9l2.49-128.33L0,0c21.46,25.05,67.87,78.41,81.8,91.41,13.93,13,34.18,20.98,42.57,23.35l120.48,13.31-.81-19.79-117.97-13.15c-10.39-.34-24.04-11.22-29.57-16.62L52.33,28.18l217.49,25.93-2.93,115.31c-28.23,1.58-87.15,6.93-107.55,24.99-25.77,22.8-28.18,62.21-5.37,87.98,22.8,25.77,62.21,28.18,87.98,5.37,20.49-18.13,32.99-76.32,37.95-104.03l114.61,12.45-4.47,216.79-39.48-44.98c-5.22-2.36-10.83-22.82-12.98-32.76l-1.24-122.69-21.35-.97c-1.41,40.92-3,125.94,1.88,138.69,4.88,12.75,14.1,26.25,18.11,31.41l76.61,87.29,5.2-292.33-127.17-13.75ZM211.39,268.51c-11.41,9.82-28.62,8.52-38.44-2.89-9.82-11.41-8.52-28.62,2.89-38.44,11.41-9.82,28.62-8.52,38.44,2.89,9.82,11.41,8.52,28.62-2.89,38.44Z"/></svg>