<?xml version="1.0" encoding="UTF-8"?><svg id="Layer_2" xmlns="http://www.w3.org/2000/svg" viewBox="0 0 89.73 67.13"><defs><style>.cls-1{fill:#fa5507;stroke-width:0px;}</style></defs><g id="Layer_2-2"><path class="cls-1" d="M78.37,67.13H11.36c-6.26,0-11.36-5.1-11.36-11.36V11.36C0,5.1,5.1,0,11.36,0h67.01c6.26,0,11.36,5.1,11.36,11.36v44.41c0,6.26-5.1,11.36-11.36,11.36ZM11.36,4c-4.06,0-7.36,3.3-7.36,7.36v44.41c0,4.06,3.3,7.36,7.36,7.36h67.01c4.06,0,7.36-3.3,7.36-7.36V11.36c0-4.06-3.3-7.36-7.36-7.36H11.36Z"/><path class="cls-1" d="M46.14,49.1c-.9,0-2.57,0-45.46-35.08l2.63-3.22c14.56,11.91,38.08,30.84,42.83,33.89,4.59-2.94,26.63-20.7,40.27-31.89l2.64,3.22c-40.34,33.08-42.01,33.08-42.91,33.08Z"/></g></svg>