<?xml version="1.0" encoding="UTF-8"?><svg id="Layer_1" xmlns="http://www.w3.org/2000/svg" viewBox="0 0 198.33 104.04"><defs><style>.cls-1{fill:#fff;stroke-width:0px;}</style></defs><path class="cls-1" d="M112.31,27.49l4.83-4.23L101.8,0l-16.81,23.56,5.05,4.9,11.55-17.23,10.73,16.26Z"/><path class="cls-1" d="M100.28,46.57l-29.63-27.23L0,82.49c10.48.03,32.96-.07,39-.72,6.04-.66,12.25-3.88,14.6-5.4l28.92-26.25-4.82-3.91-28.35,25.68c-2.3,2.43-7.78,3.46-10.24,3.67l-21.28.19,52.65-46.99,26.47,24.64c-5.67,7.13-17.03,22.42-17.15,31.09-.16,10.94,8.59,19.7,19.53,19.55,10.94-.14,19.94-9.13,20.1-20.07.13-8.7-10.88-23.79-16.32-30.73l27.46-25.01,49.99,46.08-19.02.17c-1.67.77-7.68-2.13-10.48-3.67l-29.1-25.17-4.8,4.94c9.32,8.83,28.96,26.86,33,28.33,4.04,1.47,9.19,2.05,11.26,2.16l36.92-.33-67.59-61.93-30.46,27.77h0ZM108.36,87.33c-.14,4.79-4.13,8.66-8.91,8.65-4.78,0-8.55-3.89-8.41-8.67.14-4.79,4.13-8.66,8.91-8.65,4.78,0,8.55,3.89,8.41,8.67Z"/></svg>