<svg width="559" height="139" viewBox="0 0 559 139" fill="none" xmlns="http://www.w3.org/2000/svg">
<path d="M118.308 40.5275L124.718 40.9549L130.312 13.6514L101.768 18.4257L101.872 25.4574L122.223 21.4429L118.308 40.5275Z" fill="#FA5507"/>
<path d="M96.3095 45.5119L94.6179 5.30491L0 0C7.3886 7.43378 23.3516 23.2576 28.085 27.0638C32.8185 30.8701 39.4886 32.9864 42.2307 33.5664L81.2391 35.457L80.5947 29.2805L42.395 27.393C39.0471 27.484 34.4458 24.333 32.5607 22.7497L17.3775 7.83509L87.8351 11.842L89.1304 47.9825C80.0791 49.0109 61.2355 51.7981 55.023 57.8367C47.1768 65.4586 47.1672 77.8367 55.0036 85.4712C62.8369 93.1056 75.5583 93.115 83.4045 85.49C89.6427 79.4295 92.5331 60.9814 93.5932 52.2151L130.697 53.949L133.465 121.881L119.893 108.55C118.169 107.91 115.968 101.612 115.082 98.5422L112.302 60.1694L105.416 60.2697C105.757 73.1024 106.895 99.7399 108.712 103.637C110.529 107.534 113.758 111.588 115.147 113.128L141.482 139L137.48 47.415L96.3095 45.515V45.5119ZM73.1996 80.0377C69.7196 83.3266 64.158 83.2451 60.7811 79.859C57.401 76.4729 57.4848 71.0614 60.9648 67.7756C64.4448 64.4867 70.0064 64.5682 73.3833 67.9543C76.7634 71.3404 76.6797 76.7519 73.1996 80.0377Z" fill="#FA5507"/>
<path d="M529.198 83.8217C528.011 83.8217 527.014 83.5251 526.205 82.9318C525.45 82.3386 525.072 81.6914 525.072 80.9903V30.0259C525.072 29.2169 525.45 28.5698 526.205 28.0844C527.014 27.5451 527.984 27.2754 529.117 27.2754C530.249 27.2754 531.193 27.5451 531.948 28.0844C532.703 28.5698 533.081 29.2169 533.081 30.0259V32.9381C533.998 31.3741 535.373 29.9719 537.207 28.7315C539.094 27.4372 541.332 26.79 543.921 26.79C546.617 26.79 549.071 27.5181 551.282 28.9742C553.494 30.3764 555.246 32.291 556.541 34.7178C557.835 37.0908 558.482 39.7604 558.482 42.7265V50.169C558.482 52.9734 557.808 55.616 556.46 58.0968C555.165 60.5237 553.44 62.4921 551.282 64.0022C549.125 65.5122 546.779 66.2673 544.244 66.2673C541.818 66.2673 539.633 65.6471 537.692 64.4067C535.75 63.1123 534.375 61.6292 533.566 59.9574V80.9903C533.566 81.6914 533.135 82.3386 532.272 82.9318C531.463 83.5251 530.438 83.8217 529.198 83.8217ZM541.737 58.744C543.193 58.744 544.541 58.3395 545.781 57.5305C547.022 56.7215 548.02 55.6429 548.775 54.2947C549.584 52.9464 549.988 51.5712 549.988 50.169V42.7265C549.988 41.3244 549.611 39.9761 548.856 38.6817C548.101 37.3874 547.076 36.3358 545.781 35.5268C544.541 34.7178 543.139 34.3134 541.575 34.3134C540.281 34.3134 539.013 34.6639 537.773 35.365C536.532 36.0122 535.508 36.956 534.699 38.1964C533.944 39.4368 533.566 40.9468 533.566 42.7265V52.0296C533.566 52.6768 533.917 53.5396 534.618 54.6183C535.319 55.6429 536.29 56.5867 537.53 57.4496C538.771 58.3125 540.173 58.744 541.737 58.744Z" fill="black"/>
<path d="M488.276 83.8217C487.089 83.8217 486.092 83.5251 485.283 82.9318C484.528 82.3386 484.15 81.6914 484.15 80.9903V30.0259C484.15 29.2169 484.528 28.5698 485.283 28.0844C486.092 27.5451 487.062 27.2754 488.195 27.2754C489.328 27.2754 490.271 27.5451 491.026 28.0844C491.781 28.5698 492.159 29.2169 492.159 30.0259V32.9381C493.076 31.3741 494.451 29.9719 496.285 28.7315C498.172 27.4372 500.41 26.79 502.999 26.79C505.695 26.79 508.149 27.5181 510.36 28.9742C512.572 30.3764 514.324 32.291 515.619 34.7178C516.913 37.0908 517.56 39.7604 517.56 42.7265V50.169C517.56 52.9734 516.886 55.616 515.538 58.0968C514.243 60.5237 512.518 62.4921 510.36 64.0022C508.203 65.5122 505.857 66.2673 503.323 66.2673C500.896 66.2673 498.711 65.6471 496.77 64.4067C494.828 63.1123 493.453 61.6292 492.644 59.9574V80.9903C492.644 81.6914 492.213 82.3386 491.35 82.9318C490.541 83.5251 489.516 83.8217 488.276 83.8217ZM500.815 58.744C502.271 58.744 503.619 58.3395 504.86 57.5305C506.1 56.7215 507.098 55.6429 507.853 54.2947C508.662 52.9464 509.066 51.5712 509.066 50.169V42.7265C509.066 41.3244 508.689 39.9761 507.934 38.6817C507.179 37.3874 506.154 36.3358 504.86 35.5268C503.619 34.7178 502.217 34.3134 500.653 34.3134C499.359 34.3134 498.091 34.6639 496.851 35.365C495.61 36.0122 494.586 36.956 493.777 38.1964C493.022 39.4368 492.644 40.9468 492.644 42.7265V52.0296C492.644 52.6768 492.995 53.5396 493.696 54.6183C494.397 55.6429 495.368 56.5867 496.608 57.4496C497.849 58.3125 499.251 58.744 500.815 58.744Z" fill="black"/>
<path d="M455.272 66.2673C452.305 66.2673 449.771 65.4044 447.667 63.6786C445.564 61.8989 444.512 59.2024 444.512 55.589C444.512 52.515 445.321 50.142 446.939 48.4702C448.557 46.7983 450.768 45.6388 453.573 44.9916C456.431 44.3445 459.721 44.0209 463.442 44.0209H467.001V42.5648C467.001 41.1626 466.732 39.8143 466.193 38.52C465.707 37.1717 464.871 36.0661 463.685 35.2032C462.552 34.2864 460.988 33.828 458.993 33.828C456.997 33.828 455.46 34.0167 454.382 34.3943C453.303 34.7718 452.44 35.1763 451.793 35.6077C451.146 36.0391 450.553 36.2549 450.013 36.2549C449.043 36.2549 448.288 35.7965 447.748 34.8796C447.209 33.9089 446.939 32.9381 446.939 31.9674C446.939 30.9966 447.559 30.1337 448.8 29.3787C450.094 28.5698 451.685 27.9496 453.573 27.5181C455.46 27.0327 457.321 26.79 459.155 26.79C463.145 26.79 466.327 27.5451 468.7 29.0551C471.073 30.5113 472.799 32.4258 473.878 34.7987C474.956 37.1717 475.496 39.7334 475.496 42.4839V62.7888C475.496 63.5438 475.091 64.2179 474.282 64.8112C473.527 65.3505 472.556 65.6201 471.37 65.6201C470.291 65.6201 469.374 65.3505 468.619 64.8112C467.864 64.2179 467.487 63.5438 467.487 62.7888V59.9574C466.085 61.5753 464.386 63.0314 462.39 64.3258C460.395 65.6201 458.022 66.2673 455.272 66.2673ZM458.346 59.7956C459.694 59.7956 461.015 59.3911 462.31 58.5822C463.658 57.7732 464.763 56.7485 465.626 55.5081C466.543 54.2677 467.001 53.0003 467.001 51.706V48.7129H464.979C462.93 48.7129 460.988 48.8477 459.155 49.1173C457.321 49.333 455.838 49.8724 454.705 50.7353C453.627 51.5442 453.087 52.8116 453.087 54.5374C453.087 56.371 453.573 57.7193 454.543 58.5822C455.568 59.3911 456.836 59.7956 458.346 59.7956Z" fill="black"/>
<path d="M387.969 65.6203C386.89 65.6203 385.892 65.3776 384.975 64.8922C384.113 64.4069 383.681 63.7058 383.681 62.7889V9.31671C383.681 8.29203 384.113 7.56396 384.975 7.13252C385.892 6.70107 386.89 6.48535 387.969 6.48535C388.993 6.48535 389.856 6.64714 390.557 6.97073C391.312 7.24038 391.986 7.72575 392.58 8.42685C393.173 9.12795 393.793 10.0987 394.44 11.3391L412.399 46.3671V9.23581C412.399 8.26506 412.831 7.56396 413.694 7.13252C414.61 6.70107 415.608 6.48535 416.687 6.48535C417.765 6.48535 418.736 6.70107 419.599 7.13252C420.516 7.56396 420.974 8.26506 420.974 9.23581V62.7889C420.974 63.7058 420.516 64.4069 419.599 64.8922C418.736 65.3776 417.765 65.6203 416.687 65.6203C415.608 65.6203 414.637 65.3507 413.774 64.8113C412.912 64.272 412.183 63.49 411.59 62.4654L392.256 25.6577V62.7889C392.256 63.7058 391.798 64.4069 390.881 64.8922C390.018 65.3776 389.047 65.6203 387.969 65.6203Z" fill="black"/>
<path d="M355.416 66.1057C351.964 66.1057 348.863 65.5124 346.113 64.326C343.416 63.1395 341.259 61.225 339.641 58.5824C338.077 55.9398 337.295 52.4343 337.295 48.0659V24.5252C337.295 20.1568 338.077 16.6513 339.641 14.0087C341.259 11.3661 343.416 9.45153 346.113 8.26506C348.863 7.07859 351.964 6.48535 355.416 6.48535C358.813 6.48535 361.887 7.07859 364.638 8.26506C367.388 9.45153 369.572 11.3661 371.19 14.0087C372.808 16.6513 373.617 20.1568 373.617 24.5252V48.0659C373.617 52.4343 372.808 55.9398 371.19 58.5824C369.572 61.225 367.388 63.1395 364.638 64.326C361.887 65.5124 358.813 66.1057 355.416 66.1057ZM355.416 58.5015C358.382 58.5015 360.728 57.6655 362.454 55.9937C364.179 54.2679 365.042 51.6253 365.042 48.0659V24.5252C365.042 20.9657 364.179 18.3501 362.454 16.6782C360.782 14.9525 358.436 14.0896 355.416 14.0896C352.395 14.0896 350.023 14.9525 348.297 16.6782C346.625 18.3501 345.789 20.9657 345.789 24.5252V48.0659C345.789 51.6253 346.625 54.2679 348.297 55.9937C350.023 57.6655 352.395 58.5015 355.416 58.5015Z" fill="black"/>
<path d="M311.407 66.1057C308.171 66.1057 305.178 65.5124 302.427 64.326C299.731 63.1395 297.574 61.225 295.956 58.5824C294.338 55.9398 293.529 52.4343 293.529 48.0659V24.5252C293.529 20.1568 294.338 16.6513 295.956 14.0087C297.574 11.3661 299.758 9.45153 302.508 8.26506C305.259 7.07859 308.252 6.48535 311.488 6.48535C315.209 6.48535 318.418 7.13252 321.114 8.42685C323.865 9.66726 325.995 11.393 327.505 13.6042C329.069 15.7614 329.851 18.2692 329.851 21.1275C329.851 22.9612 329.501 24.1746 328.8 24.7678C328.098 25.3071 327.02 25.5768 325.564 25.5768C324.269 25.5768 323.245 25.3611 322.49 24.9296C321.735 24.4443 321.33 23.7162 321.276 22.7454C321.222 22.0443 321.087 21.2084 320.872 20.2377C320.656 19.2669 320.225 18.3231 319.577 17.4063C318.984 16.4356 318.067 15.6536 316.827 15.0603C315.587 14.4132 313.888 14.0896 311.73 14.0896C308.602 14.0896 306.203 14.9525 304.531 16.6782C302.859 18.3501 302.023 20.9657 302.023 24.5252V48.0659C302.023 51.6253 302.859 54.2679 304.531 55.9937C306.257 57.6655 308.737 58.5015 311.973 58.5015C314.023 58.5015 315.64 58.2048 316.827 57.6116C318.067 56.9644 318.984 56.1824 319.577 55.2656C320.171 54.2949 320.575 53.2972 320.791 52.2725C321.007 51.1939 321.168 50.2231 321.276 49.3602C321.33 48.3355 321.735 47.6075 322.49 47.176C323.299 46.7446 324.296 46.5289 325.483 46.5289C326.993 46.5289 328.098 46.8255 328.8 47.4187C329.501 48.012 329.851 49.1984 329.851 50.9781C329.851 53.8904 329.069 56.506 327.505 58.825C325.995 61.0901 323.865 62.8698 321.114 64.1642C318.364 65.4585 315.128 66.1057 311.407 66.1057Z" fill="black"/>
<path d="M260.767 65.6203C259.85 65.6203 258.988 65.3776 258.179 64.8922C257.37 64.4069 256.965 63.7058 256.965 62.7889V9.23581C256.965 8.26506 257.397 7.56396 258.26 7.13252C259.176 6.70107 260.174 6.48535 261.253 6.48535C262.331 6.48535 263.302 6.70107 264.165 7.13252C265.082 7.56396 265.54 8.26506 265.54 9.23581V58.0161H286.573C287.436 58.0161 288.083 58.4206 288.515 59.2295C288.946 59.9845 289.162 60.8474 289.162 61.8182C289.162 62.735 288.946 63.5979 288.515 64.4069C288.083 65.2158 287.436 65.6203 286.573 65.6203H260.767Z" fill="black"/>
<path d="M212.671 65.6203C211.916 65.6203 211.107 65.4585 210.244 65.135C209.381 64.8114 208.68 64.4069 208.141 63.9215C207.601 63.3822 207.332 62.762 207.332 62.0609C207.332 61.8991 207.359 61.6564 207.413 61.3329L223.511 8.91226C223.835 7.9415 224.509 7.21344 225.533 6.72806C226.612 6.24269 227.744 6 228.931 6C230.171 6 231.304 6.24269 232.329 6.72806C233.407 7.21344 234.108 7.9415 234.432 8.91226L250.449 61.3329C250.557 61.6564 250.611 61.8991 250.611 62.0609C250.611 62.7081 250.314 63.3013 249.721 63.8406C249.182 64.3799 248.481 64.8114 247.618 65.135C246.809 65.4585 246 65.6203 245.191 65.6203C244.49 65.6203 243.87 65.4855 243.33 65.2159C242.845 64.9462 242.495 64.4878 242.279 63.8406L238.962 52.3534H218.9L215.664 63.8406C215.502 64.4878 215.125 64.9462 214.531 65.2159C213.992 65.4855 213.372 65.6203 212.671 65.6203ZM220.841 45.4772H237.021L228.931 17.7299L220.841 45.4772Z" fill="black"/>
<path d="M181.937 65.6203C180.858 65.6203 179.86 65.4046 178.944 64.9731C178.081 64.4878 177.649 63.7597 177.649 62.7889V9.31671C177.649 8.39989 178.054 7.69879 178.863 7.21341C179.672 6.72804 180.535 6.48535 181.451 6.48535H209.846C210.817 6.48535 211.518 6.88983 211.949 7.69879C212.381 8.50775 212.596 9.34367 212.596 10.2066C212.596 11.2312 212.354 12.1481 211.868 12.957C211.437 13.7121 210.763 14.0896 209.846 14.0896H186.224V32.6147H198.763C199.68 32.6147 200.354 32.9653 200.785 33.6664C201.271 34.3675 201.514 35.1765 201.514 36.0933C201.514 36.8483 201.298 37.6033 200.866 38.3584C200.435 39.0595 199.734 39.41 198.763 39.41H186.224V62.7889C186.224 63.7597 185.766 64.4878 184.849 64.9731C183.986 65.4046 183.015 65.6203 181.937 65.6203Z" fill="black"/>
<path d="M534.032 133.262C533.727 133.262 533.469 133.155 533.255 132.942C533.042 132.729 532.936 132.501 532.936 132.257V101.878C532.936 101.604 533.042 101.391 533.255 101.239C533.469 101.056 533.727 100.965 534.032 100.965C534.367 100.965 534.626 101.056 534.809 101.239C535.022 101.391 535.128 101.604 535.128 101.878V104.162C535.646 103.279 536.423 102.487 537.458 101.787C538.494 101.056 539.758 100.69 541.25 100.69C542.742 100.69 544.113 101.071 545.361 101.832C546.61 102.563 547.6 103.568 548.331 104.848C549.092 106.096 549.473 107.497 549.473 109.05V114.349C549.473 115.811 549.092 117.197 548.331 118.507C547.6 119.786 546.61 120.821 545.361 121.613C544.143 122.405 542.818 122.801 541.387 122.801C539.986 122.801 538.722 122.466 537.595 121.796C536.499 121.095 535.692 120.273 535.174 119.329V132.257C535.174 132.501 535.067 132.729 534.854 132.942C534.641 133.155 534.367 133.262 534.032 133.262ZM541.158 120.699C542.255 120.699 543.26 120.395 544.174 119.786C545.087 119.177 545.818 118.385 546.366 117.41C546.945 116.436 547.234 115.415 547.234 114.349V109.05C547.234 107.984 546.945 106.979 546.366 106.035C545.818 105.091 545.087 104.315 544.174 103.705C543.26 103.096 542.24 102.792 541.113 102.792C540.138 102.792 539.194 103.051 538.28 103.568C537.367 104.056 536.621 104.771 536.042 105.715C535.463 106.629 535.174 107.741 535.174 109.05V115.903C535.174 116.39 535.433 117.014 535.951 117.776C536.468 118.537 537.184 119.222 538.098 119.831C539.011 120.41 540.032 120.699 541.158 120.699Z" fill="black"/>
<path d="M511.251 122.801C509.484 122.801 507.992 122.313 506.774 121.339C505.556 120.334 504.947 118.811 504.947 116.771C504.947 115.157 505.388 113.908 506.271 113.025C507.185 112.141 508.434 111.532 510.017 111.197C511.631 110.832 513.489 110.649 515.591 110.649H518.057V109.461C518.057 108.396 517.859 107.345 517.464 106.309C517.098 105.274 516.489 104.421 515.636 103.751C514.814 103.081 513.702 102.746 512.301 102.746C511.327 102.746 510.52 102.853 509.88 103.066C509.271 103.249 508.769 103.462 508.373 103.705C508.007 103.919 507.718 104.025 507.505 104.025C507.2 104.025 506.957 103.888 506.774 103.614C506.591 103.31 506.5 103.035 506.5 102.792C506.5 102.426 506.789 102.091 507.368 101.787C507.977 101.452 508.738 101.193 509.652 101.01C510.566 100.797 511.479 100.69 512.393 100.69C514.372 100.69 515.926 101.117 517.052 101.97C518.21 102.792 519.032 103.873 519.519 105.213C520.037 106.523 520.296 107.939 520.296 109.461V121.567C520.296 121.811 520.189 122.039 519.976 122.253C519.793 122.435 519.534 122.527 519.199 122.527C518.895 122.527 518.636 122.435 518.423 122.253C518.21 122.039 518.103 121.811 518.103 121.567V119.329C517.342 120.212 516.382 121.019 515.225 121.75C514.098 122.45 512.774 122.801 511.251 122.801ZM511.571 120.791C512.636 120.791 513.657 120.532 514.631 120.014C515.636 119.466 516.459 118.811 517.098 118.05C517.738 117.258 518.057 116.527 518.057 115.857V112.476H515.819C514.327 112.476 512.926 112.568 511.616 112.751C510.307 112.903 509.241 113.284 508.418 113.893C507.596 114.471 507.185 115.4 507.185 116.679C507.185 118.111 507.611 119.161 508.464 119.831C509.317 120.471 510.352 120.791 511.571 120.791Z" fill="black"/>
<path d="M465.365 122.527C465.06 122.527 464.801 122.435 464.588 122.253C464.375 122.039 464.268 121.811 464.268 121.567V101.878C464.268 101.604 464.375 101.391 464.588 101.239C464.801 101.056 465.06 100.965 465.365 100.965C465.7 100.965 465.958 101.056 466.141 101.239C466.354 101.391 466.461 101.604 466.461 101.878V104.162C466.979 103.279 467.74 102.487 468.745 101.787C469.781 101.056 471.06 100.69 472.582 100.69C474.136 100.69 475.491 101.117 476.648 101.97C477.836 102.822 478.704 103.919 479.252 105.259C480.044 103.705 481.064 102.563 482.313 101.832C483.592 101.071 484.886 100.69 486.196 100.69C487.505 100.69 488.724 101.01 489.85 101.65C491.008 102.289 491.952 103.233 492.683 104.482C493.414 105.731 493.779 107.253 493.779 109.05V121.567C493.779 121.811 493.672 122.039 493.459 122.253C493.246 122.435 492.972 122.527 492.637 122.527C492.332 122.527 492.074 122.435 491.86 122.253C491.647 122.039 491.541 121.811 491.541 121.567V109.05C491.541 107.68 491.251 106.538 490.673 105.624C490.124 104.68 489.424 103.98 488.571 103.523C487.719 103.035 486.835 102.792 485.922 102.792C484.947 102.792 484.018 103.051 483.135 103.568C482.282 104.056 481.567 104.756 480.988 105.67C480.44 106.553 480.166 107.604 480.166 108.822V121.613C480.166 121.918 480.044 122.146 479.8 122.298C479.557 122.45 479.298 122.527 479.024 122.527C478.75 122.527 478.491 122.45 478.247 122.298C478.034 122.146 477.927 121.918 477.927 121.613V108.868C477.927 107.68 477.668 106.644 477.151 105.761C476.633 104.848 475.963 104.132 475.141 103.614C474.318 103.066 473.389 102.792 472.354 102.792C471.41 102.792 470.481 103.051 469.567 103.568C468.684 104.056 467.953 104.756 467.375 105.67C466.796 106.583 466.507 107.71 466.507 109.05V121.567C466.507 121.811 466.4 122.039 466.187 122.253C465.974 122.435 465.7 122.527 465.365 122.527Z" fill="black"/>
<path d="M422.937 122.983C420.774 122.983 418.932 122.541 417.409 121.658C415.886 120.775 414.714 119.602 413.892 118.14C413.1 116.679 412.704 115.08 412.704 113.344C412.704 111.76 413.008 110.374 413.617 109.187C414.257 107.999 415.064 106.994 416.039 106.172C417.013 105.349 418.018 104.725 419.054 104.299C418.11 103.172 417.226 101.969 416.404 100.69C415.612 99.3802 415.216 97.8117 415.216 95.9844C415.216 94.3703 415.582 92.9999 416.313 91.873C417.044 90.7157 418.003 89.8478 419.191 89.2691C420.409 88.66 421.734 88.3555 423.165 88.3555C424.779 88.3555 426.104 88.6296 427.139 89.1778C428.175 89.7259 428.951 90.335 429.469 91.005C429.987 91.6446 430.246 92.1471 430.246 92.5126C430.246 92.8171 430.139 93.076 429.926 93.2892C429.713 93.4719 429.454 93.5633 429.149 93.5633C428.906 93.5633 428.662 93.411 428.419 93.1064C428.175 92.7714 427.855 92.3907 427.459 91.9644C427.063 91.5076 426.53 91.1269 425.86 90.8223C425.221 90.4873 424.368 90.3198 423.302 90.3198C421.566 90.3198 420.196 90.8528 419.191 91.9187C418.186 92.9846 417.683 94.4008 417.683 96.1672C417.683 97.2635 417.881 98.2686 418.277 99.1822C418.673 100.096 419.191 100.964 419.83 101.786C420.47 102.608 421.14 103.415 421.84 104.207L431.616 114.988C432.286 113.435 432.713 111.836 432.895 110.192C433.109 108.547 433.246 107.177 433.307 106.08C433.307 105.684 433.383 105.41 433.535 105.258C433.687 105.075 433.961 104.984 434.357 104.984C434.692 104.984 434.936 105.09 435.088 105.304C435.24 105.517 435.317 105.852 435.317 106.309C435.317 106.887 435.256 107.74 435.134 108.867C435.042 109.994 434.845 111.242 434.54 112.613C434.235 113.953 433.748 115.278 433.078 116.587L437.418 121.247C437.479 121.369 437.525 121.49 437.555 121.612C437.616 121.704 437.646 121.78 437.646 121.841C437.646 122.115 437.54 122.343 437.327 122.526C437.113 122.709 436.885 122.8 436.641 122.8C436.52 122.8 436.398 122.77 436.276 122.709C436.185 122.678 436.078 122.602 435.956 122.48L432.027 118.277C431.114 119.617 429.911 120.744 428.419 121.658C426.957 122.541 425.129 122.983 422.937 122.983ZM423.256 120.836C425.114 120.836 426.622 120.455 427.779 119.694C428.936 118.932 429.865 117.958 430.566 116.77L420.378 105.806C419.648 106.202 418.871 106.705 418.049 107.314C417.226 107.923 416.511 108.699 415.902 109.643C415.323 110.557 415.034 111.714 415.034 113.115C415.034 114.455 415.353 115.719 415.993 116.907C416.632 118.095 417.561 119.054 418.78 119.785C420.028 120.485 421.52 120.836 423.256 120.836Z" fill="black"/>
<path d="M376.67 122.8C375.239 122.8 373.899 122.404 372.65 121.612C371.402 120.82 370.397 119.785 369.635 118.506C368.904 117.196 368.539 115.811 368.539 114.349V109.05C368.539 107.496 368.904 106.095 369.635 104.847C370.397 103.568 371.402 102.563 372.65 101.832C373.899 101.07 375.269 100.69 376.762 100.69C378.284 100.69 379.548 101.055 380.553 101.786C381.589 102.487 382.35 103.278 382.837 104.162V88.4925C382.837 88.188 382.944 87.9596 383.157 87.8073C383.401 87.6246 383.675 87.5332 383.98 87.5332C384.315 87.5332 384.573 87.6246 384.756 87.8073C384.969 87.9596 385.076 88.188 385.076 88.4925V121.567C385.076 121.81 384.969 122.039 384.756 122.252C384.573 122.435 384.315 122.526 383.98 122.526C383.705 122.526 383.447 122.435 383.203 122.252C382.99 122.039 382.883 121.81 382.883 121.567V119.328C382.426 120.272 381.619 121.095 380.462 121.795C379.335 122.465 378.071 122.8 376.67 122.8ZM376.853 120.699C378.01 120.699 379.031 120.409 379.914 119.831C380.827 119.222 381.543 118.536 382.061 117.775C382.579 117.014 382.837 116.389 382.837 115.902V109.05C382.837 107.74 382.548 106.628 381.969 105.715C381.391 104.771 380.645 104.055 379.731 103.568C378.848 103.05 377.904 102.791 376.899 102.791C375.802 102.791 374.782 103.096 373.838 103.705C372.924 104.314 372.178 105.09 371.6 106.035C371.051 106.979 370.777 107.984 370.777 109.05V114.349C370.777 115.415 371.051 116.435 371.6 117.41C372.178 118.384 372.924 119.176 373.838 119.785C374.752 120.394 375.757 120.699 376.853 120.699Z" fill="black"/>
<path d="M355.442 94.1573C354.985 94.1573 354.574 93.9898 354.209 93.6548C353.874 93.3198 353.706 92.9239 353.706 92.467C353.706 92.0102 353.874 91.6295 354.209 91.325C354.574 91.0204 354.985 90.8682 355.442 90.8682C355.93 90.8682 356.325 91.0204 356.63 91.325C356.965 91.6295 357.133 92.0102 357.133 92.467C357.133 92.9239 356.965 93.3198 356.63 93.6548C356.325 93.9898 355.93 94.1573 355.442 94.1573ZM355.397 122.526C355.092 122.526 354.833 122.435 354.62 122.252C354.407 122.039 354.3 121.81 354.3 121.567V101.878C354.3 101.604 354.407 101.39 354.62 101.238C354.833 101.055 355.092 100.964 355.397 100.964C355.732 100.964 356.006 101.055 356.219 101.238C356.432 101.39 356.539 101.604 356.539 101.878V121.567C356.539 121.81 356.432 122.039 356.219 122.252C356.006 122.435 355.732 122.526 355.397 122.526Z" fill="black"/>
<path d="M323.901 122.526C323.597 122.526 323.338 122.435 323.125 122.252C322.912 122.039 322.805 121.81 322.805 121.567V88.4925C322.805 88.188 322.912 87.9596 323.125 87.8073C323.338 87.6246 323.597 87.5332 323.901 87.5332C324.236 87.5332 324.511 87.6246 324.724 87.8073C324.937 87.9596 325.044 88.188 325.044 88.4925V121.567C325.044 121.81 324.937 122.039 324.724 122.252C324.511 122.435 324.236 122.526 323.901 122.526Z" fill="black"/>
<path d="M300.755 122.801C298.988 122.801 297.496 122.313 296.278 121.339C295.06 120.334 294.451 118.811 294.451 116.771C294.451 115.157 294.892 113.908 295.775 113.025C296.689 112.141 297.938 111.532 299.521 111.197C301.135 110.832 302.993 110.649 305.095 110.649H307.561V109.461C307.561 108.396 307.363 107.345 306.968 106.309C306.602 105.274 305.993 104.421 305.14 103.751C304.318 103.081 303.206 102.746 301.805 102.746C300.831 102.746 300.024 102.853 299.384 103.066C298.775 103.249 298.273 103.462 297.877 103.705C297.511 103.919 297.222 104.025 297.009 104.025C296.704 104.025 296.461 103.888 296.278 103.614C296.095 103.31 296.004 103.035 296.004 102.792C296.004 102.426 296.293 102.091 296.872 101.787C297.481 101.452 298.242 101.193 299.156 101.01C300.07 100.797 300.983 100.69 301.897 100.69C303.876 100.69 305.43 101.117 306.556 101.97C307.714 102.792 308.536 103.873 309.023 105.213C309.541 106.523 309.8 107.939 309.8 109.461V121.567C309.8 121.811 309.693 122.039 309.48 122.253C309.297 122.435 309.038 122.527 308.703 122.527C308.399 122.527 308.14 122.435 307.927 122.253C307.714 122.039 307.607 121.811 307.607 121.567V119.329C306.846 120.212 305.886 121.019 304.729 121.75C303.602 122.45 302.277 122.801 300.755 122.801ZM301.075 120.791C302.14 120.791 303.161 120.532 304.135 120.014C305.14 119.466 305.963 118.811 306.602 118.05C307.242 117.258 307.561 116.527 307.561 115.857V112.476H305.323C303.831 112.476 302.43 112.568 301.12 112.751C299.811 112.903 298.745 113.284 297.922 113.893C297.1 114.471 296.689 115.4 296.689 116.679C296.689 118.111 297.115 119.161 297.968 119.831C298.821 120.471 299.856 120.791 301.075 120.791Z" fill="black"/>
<path d="M274.932 122.8C273.41 122.8 272.009 122.419 270.73 121.658C269.45 120.866 268.43 119.831 267.669 118.552C266.907 117.272 266.527 115.902 266.527 114.44V101.923C266.527 101.68 266.633 101.466 266.847 101.284C267.09 101.07 267.364 100.964 267.669 100.964C267.973 100.964 268.232 101.07 268.445 101.284C268.659 101.466 268.765 101.68 268.765 101.923V114.44C268.765 115.506 269.039 116.511 269.588 117.455C270.136 118.399 270.867 119.176 271.78 119.785C272.724 120.394 273.775 120.699 274.932 120.699C276.09 120.699 277.125 120.409 278.039 119.831C278.952 119.222 279.683 118.445 280.232 117.501C280.78 116.526 281.054 115.506 281.054 114.44V101.878C281.054 101.634 281.16 101.421 281.374 101.238C281.617 101.055 281.891 100.964 282.196 100.964C282.531 100.964 282.79 101.055 282.972 101.238C283.186 101.421 283.292 101.634 283.292 101.878V114.44C283.292 115.932 282.912 117.318 282.15 118.597C281.389 119.876 280.369 120.897 279.089 121.658C277.841 122.419 276.455 122.8 274.932 122.8Z" fill="black"/>
<path d="M253.772 122.526C251.518 122.526 249.798 122.009 248.61 120.973C247.422 119.938 246.828 118.293 246.828 116.039V91.4623C246.828 91.1577 246.95 90.9293 247.194 90.777C247.437 90.5943 247.681 90.5029 247.925 90.5029C248.229 90.5029 248.488 90.5943 248.701 90.777C248.945 90.9293 249.067 91.1577 249.067 91.4623V100.964H255.143C255.386 100.964 255.584 101.056 255.736 101.238C255.919 101.421 256.011 101.665 256.011 101.969C256.011 102.213 255.919 102.441 255.736 102.654C255.584 102.837 255.386 102.929 255.143 102.929H249.067V116.039C249.067 117.623 249.417 118.75 250.118 119.42C250.848 120.09 252.067 120.425 253.772 120.425H254.914C255.249 120.425 255.508 120.532 255.691 120.745C255.873 120.927 255.965 121.171 255.965 121.476C255.965 121.75 255.873 121.993 255.691 122.207C255.508 122.42 255.249 122.526 254.914 122.526H253.772Z" fill="black"/>
<path d="M226.62 122.527C226.316 122.527 226.057 122.435 225.844 122.253C225.631 122.039 225.524 121.811 225.524 121.567V101.878C225.524 101.604 225.631 101.391 225.844 101.239C226.057 101.056 226.316 100.965 226.62 100.965C226.955 100.965 227.214 101.056 227.397 101.239C227.61 101.391 227.717 101.604 227.717 101.878V104.208C228.082 103.599 228.554 103.035 229.133 102.518C229.712 101.97 230.397 101.528 231.189 101.193C232.011 100.858 232.94 100.69 233.975 100.69H235.62C235.894 100.69 236.122 100.797 236.305 101.01C236.488 101.193 236.579 101.437 236.579 101.741C236.579 102.046 236.488 102.305 236.305 102.518C236.122 102.7 235.894 102.792 235.62 102.792H233.975C232.94 102.792 231.935 103.066 230.96 103.614C230.016 104.132 229.239 104.893 228.63 105.898C228.052 106.873 227.762 108.061 227.762 109.461V121.567C227.762 121.811 227.656 122.039 227.443 122.253C227.229 122.435 226.955 122.527 226.62 122.527Z" fill="black"/>
<path d="M211.605 94.1573C211.148 94.1573 210.737 93.9898 210.372 93.6548C210.037 93.3198 209.869 92.9239 209.869 92.467C209.869 92.0102 210.037 91.6295 210.372 91.325C210.737 91.0204 211.148 90.8682 211.605 90.8682C212.092 90.8682 212.488 91.0204 212.793 91.325C213.128 91.6295 213.295 92.0102 213.295 92.467C213.295 92.9239 213.128 93.3198 212.793 93.6548C212.488 93.9898 212.092 94.1573 211.605 94.1573ZM211.559 122.526C211.255 122.526 210.996 122.435 210.783 122.252C210.57 122.039 210.463 121.81 210.463 121.567V101.878C210.463 101.604 210.57 101.39 210.783 101.238C210.996 101.055 211.255 100.964 211.559 100.964C211.894 100.964 212.169 101.055 212.382 101.238C212.595 101.39 212.701 101.604 212.701 101.878V121.567C212.701 121.81 212.595 122.039 212.382 122.252C212.169 122.435 211.894 122.526 211.559 122.526Z" fill="black"/>
<path d="M191.401 122.846C191.127 122.846 190.898 122.785 190.716 122.663C190.533 122.571 190.396 122.419 190.305 122.206L183.087 102.654C183.056 102.593 183.011 102.486 182.95 102.334C182.919 102.182 182.904 102.06 182.904 101.969C182.904 101.786 182.965 101.618 183.087 101.466C183.239 101.283 183.407 101.146 183.589 101.055C183.772 100.964 183.97 100.918 184.183 100.918C184.366 100.918 184.549 100.964 184.731 101.055C184.914 101.146 185.036 101.283 185.097 101.466L191.401 118.734L197.614 101.74C197.675 101.527 197.766 101.344 197.888 101.192C198.01 101.009 198.223 100.918 198.527 100.918C198.71 100.918 198.893 100.964 199.076 101.055C199.289 101.116 199.472 101.238 199.624 101.42C199.776 101.573 199.852 101.74 199.852 101.923C199.852 102.075 199.822 102.212 199.761 102.334C199.73 102.456 199.7 102.563 199.67 102.654L192.452 122.206C192.36 122.389 192.223 122.541 192.041 122.663C191.858 122.785 191.645 122.846 191.401 122.846Z" fill="black"/>
</svg>
