<?xml version="1.0" encoding="UTF-8"?><svg id="Layer_1" xmlns="http://www.w3.org/2000/svg" viewBox="0 0 453.38 481.98"><defs><style>.cls-1{fill:#fff;}.cls-1,.cls-2{stroke-width:0px;}.cls-2{fill:#808386;}</style></defs><polygon id="g-floor" class="cls-2" points="341.47 417.97 287.62 417.97 287.62 408.22 287.62 378.55 453.38 378.55 453.38 354.81 453.38 50.44 453.38 26.28 287.62 26.28 287.62 0 211.33 0 211.33 26.28 211.33 50.44 22.68 50.44 22.68 190.97 0 190.97 0 216.19 22.68 216.19 22.68 354.81 22.68 447.02 15.05 447.02 15.05 481.98 22.68 481.98 30.31 481.98 170.84 481.98 341.47 471.39 341.47 417.97"/><g id="g-label"><path class="cls-1" d="M243.99,228.6c-28.44,0-44.54-16.49-44.54-43.11,0-27.92,19.09-47.27,49.61-47.27,9.48,0,18.57,1.56,25.32,3.64l-4.02,18.44c-6.36-2.47-13.77-4.03-22.2-4.03-16.63,0-26.89,10.52-26.89,27.66,0,16.23,8.58,26.36,24.93,26.36,3.12,0,5.98-.39,8.31-1.17v-28.7h20.26v42.46c-8.57,3.51-19.48,5.71-30.77,5.71"/><path class="cls-1" d="M91.93,288.23c-11.62,0-18.52-6.84-18.52-18.03s7.81-19.71,20.36-19.71c3.81,0,7.44.65,10.37,1.57l-1.41,6.41c-2.77-1.09-5.92-1.69-9.4-1.69-7.16,0-12.26,4.57-12.26,12.77,0,7.76,4.23,12.32,11.67,12.32,1.74,0,3.26-.22,4.67-.65v-12.76h7.06v17.48c-3.64,1.47-8.15,2.28-12.54,2.28"/><path class="cls-1" d="M128.55,274.71v12.97h-7.06v-12.92l-11.46-23.73h7.71l4.83,10.53c.98,2.17,1.8,4.18,2.5,6.08h.11c.76-2.12,1.84-4.46,2.93-6.79l4.62-9.83h7.49l-11.67,23.68Z"/><path class="cls-1" d="M181.74,287.69l-2.61-17.48c-.54-3.31-.87-6.19-1.14-8.74h-.11c-.48,2.34-1.03,4.89-2,7.82l-5.81,18.41h-7l-5.6-17.1c-1.03-3.1-1.79-6.14-2.33-9.13h-.11c-.22,3.26-.6,6.14-1.04,9.34l-2.06,16.89h-7.17l5.65-36.65h8.25l6.14,18.84c.7,2.17,1.41,4.84,2.06,7.71h.05c.6-2.82,1.19-4.99,2.06-7.6l6.3-18.95h8.2l5.7,36.65h-7.44Z"/><path class="cls-1" d="M218.57,287.69l-10.75-18.52c-1.57-2.77-2.88-5.49-3.97-7.87.22,3.15.33,8.91.33,13.3v13.09h-6.84v-36.65h9.17l10.21,17.48c1.68,2.83,3.15,5.86,4.5,8.63-.27-3.69-.38-10.21-.38-14.72v-11.4h6.84v36.65h-9.13Z"/><path class="cls-1" d="M260.3,287.69l-2.55-7.49h-13.85l-2.55,7.49h-7.11l12.81-36.65h7.98l13.09,36.65h-7.82ZM252.32,264.18c-.65-1.79-1.14-3.48-1.52-5.05h-.05c-.44,1.57-.87,3.26-1.47,5.05l-3.63,10.42h10.31l-3.64-10.42Z"/><path class="cls-1" d="M281.89,288.28c-3.26,0-6.03-.33-8.47-.98l.76-6.79c2.39.98,5.05,1.57,7.98,1.57,3.31,0,6.14-1.36,6.14-4.78,0-7-15.42-3.79-15.42-15.86,0-6.51,4.99-11.02,13.85-11.02,2.01,0,4.56.27,6.63.7l-.66,6.19c-2-.65-4.13-1.03-6.3-1.03-4.12,0-6.02,1.79-6.02,4.4,0,6.57,15.69,4.13,15.69,15.75,0,6.78-5.7,11.83-14.17,11.83"/><rect class="cls-1" x="304.51" y="251.04" width="7.06" height="36.65"/><path class="cls-1" d="M336.97,288.28c-11.57,0-14.17-6.3-14.17-13.3v-23.94h7.06v23.51c0,4.61,1.52,7.87,7.59,7.87,5.43,0,7.72-2.28,7.72-8.52v-22.86h7v22.42c0,9.99-5.54,14.82-15.21,14.82"/><path class="cls-1" d="M397.05,287.69l-2.61-17.48c-.54-3.31-.87-6.19-1.14-8.74h-.11c-.48,2.34-1.03,4.89-2,7.82l-5.81,18.41h-7l-5.6-17.1c-1.03-3.1-1.79-6.14-2.33-9.13h-.11c-.22,3.26-.6,6.14-1.04,9.34l-2.06,16.89h-7.17l5.65-36.65h8.25l6.14,18.84c.7,2.17,1.41,4.84,2.06,7.71h.05c.6-2.82,1.19-4.99,2.06-7.6l6.3-18.95h8.2l5.7,36.65h-7.44Z"/></g></svg>