<?xml version="1.0" encoding="UTF-8"?><svg id="Layer_1" xmlns="http://www.w3.org/2000/svg" viewBox="0 0 298.15 494.77"><defs><style>.cls-1{fill:#fff;}.cls-1,.cls-2{stroke-width:0px;}.cls-2{fill:#808386;}</style></defs><polyline id="l-floor" class="cls-2" points="95.53 49.61 95.53 267.23 24.46 267.23 24.46 393.23 0 393.23 0 407.08 82.61 407.08 82.61 494.77 142.61 494.77 142.61 470.77 192 470.77 256.61 470.77 256.61 268.62 274.15 268.62 298.15 268.62 298.15 251.8 274.15 251.8 274.15 44.31 256.61 44.31 192 44.31 192 32.84 192 0 119.08 0 119.08 32.84 95.53 32.84"/><g id="l-label"><polygon class="cls-1" points="163.18 287.56 163.18 239.85 174.21 239.85 174.21 277.81 188.63 277.81 188.63 287.56 163.18 287.56"/><polygon class="cls-1" points="82.88 319.76 82.88 299.81 86.72 299.81 86.72 316.39 93.2 316.39 93.2 319.76 82.88 319.76"/><rect class="cls-1" x="97.02" y="299.81" width="3.84" height="19.95"/><path class="cls-1" d="M112.9,319.82c-1.18,0-3.34-.06-5.85-.06v-19.92c1.69-.09,4.2-.15,6.62-.15,4.28,0,6.68,1.74,6.68,4.93,0,1.98-1.09,3.7-3.01,4.46v.06c2.36.5,3.58,2.45,3.58,4.46,0,2.9-1.98,6.21-8.01,6.21M113.04,302.79c-.82,0-1.47.03-2.16.06v5.2c.47.03.94.03,1.57.03,2.63,0,3.81-1.07,3.81-2.84,0-1.48-.86-2.46-3.22-2.46M112.57,310.96c-.3,0-1.27,0-1.69.03v5.59c.47.06,1.24.12,2.13.12,2.51,0,3.79-1.18,3.79-2.99,0-1.95-1.71-2.75-4.23-2.75"/><path class="cls-1" d="M135.44,319.76l-5.38-8.24h-.32v8.24h-3.84v-19.95c1.57-.09,3.43-.12,5.73-.12,4.4,0,7.24,1.54,7.24,5.61,0,2.96-2.13,5.09-4.91,5.56.53.74,1.12,1.48,1.59,2.19l4.64,6.71h-4.76ZM131.24,302.83c-.56,0-1.12.03-1.51.09v5.77c.26.03.8.06,1.39.06,2.31,0,3.72-1.18,3.72-3.04s-1.18-2.87-3.61-2.87"/><path class="cls-1" d="M156.38,319.76l-1.39-4.08h-7.54l-1.39,4.08h-3.87l6.98-19.95h4.34l7.12,19.95h-4.26ZM152.03,306.96c-.35-.97-.62-1.89-.83-2.75h-.03c-.24.85-.47,1.77-.8,2.75l-1.98,5.67h5.62l-1.98-5.67Z"/><path class="cls-1" d="M173.74,319.76l-5.38-8.24h-.32v8.24h-3.84v-19.95c1.57-.09,3.43-.12,5.73-.12,4.4,0,7.24,1.54,7.24,5.61,0,2.96-2.13,5.09-4.91,5.56.53.74,1.12,1.48,1.59,2.19l4.64,6.71h-4.76ZM169.55,302.83c-.56,0-1.12.03-1.51.09v5.77c.26.03.8.06,1.39.06,2.31,0,3.72-1.18,3.72-3.04s-1.18-2.87-3.61-2.87"/><path class="cls-1" d="M189.66,312.7v7.06h-3.84v-7.03l-6.24-12.92h4.2l2.63,5.73c.53,1.18.98,2.28,1.36,3.31h.06c.41-1.15,1-2.42,1.59-3.69l2.51-5.35h4.08l-6.36,12.89Z"/><path class="cls-1" d="M225.29,320.44c-1.33-.92-3.01-2.13-4.05-2.96-1.89,1.48-4.49,2.6-7.68,2.6-4.61,0-6.71-2.69-6.71-5.85,0-2.57,1.51-4.41,3.75-6.15-1.8-2.13-2.51-3.55-2.51-5.26,0-2.63,2.07-4.88,5.88-4.88,3.4,0,5.26,1.74,5.26,4.35,0,2.07-1.09,3.78-3.52,5.7,1.42,1.42,3.46,3.25,5.35,4.73v.03c1.18-1.8,1.86-4.17,1.78-6.53h3.75c.06,3.1-.89,6.18-2.69,8.57,1.3.98,2.81,2.07,3.87,2.78l-2.48,2.86ZM212.82,310.33c-1.45,1.24-2.04,2.31-2.04,3.43,0,1.63,1.27,3.1,3.43,3.1,1.74,0,3.19-.65,4.26-1.45-2.01-1.63-4.29-3.7-5.65-5.09M213.68,300.79c-1.09,0-1.86.74-1.86,1.83,0,.83.44,1.81,1.68,3.25,1.24-1.07,2.01-2.07,2.01-3.31,0-.98-.56-1.78-1.83-1.78"/><path class="cls-1" d="M97.91,342.33c-.35,0-.82,0-1.3-.06v7.04h-3.84v-19.95c1.62-.09,3.4-.12,5.35-.12,4.91,0,7.6,2.27,7.6,6.18s-2.96,6.92-7.81,6.92M97.97,332.37c-.47,0-.92,0-1.36.03v6.65c.39.06.77.09,1.12.09,2.36-.03,3.99-1.33,3.99-3.49,0-2.01-1.15-3.28-3.75-3.28"/><path class="cls-1" d="M120.13,349.3l-1.39-4.08h-7.54l-1.39,4.08h-3.87l6.98-19.96h4.34l7.12,19.96h-4.26ZM115.79,336.5c-.35-.98-.62-1.89-.83-2.75h-.03c-.24.86-.47,1.77-.8,2.75l-1.98,5.67h5.61l-1.98-5.67Z"/><path class="cls-1" d="M137.5,349.3l-5.38-8.25h-.32v8.25h-3.84v-19.95c1.57-.09,3.43-.12,5.73-.12,4.4,0,7.24,1.53,7.24,5.61,0,2.96-2.13,5.09-4.91,5.56.53.74,1.12,1.48,1.59,2.19l4.64,6.71h-4.76ZM133.3,332.37c-.56,0-1.12.03-1.51.08v5.76c.26.03.8.06,1.39.06,2.31,0,3.72-1.18,3.72-3.05s-1.18-2.86-3.61-2.86"/><polygon class="cls-1" points="156.62 349.3 150.2 339.72 150.2 349.3 146.36 349.3 146.36 329.35 150.2 329.35 150.2 338.4 156.68 329.35 161.34 329.35 154.04 338.99 161.67 349.3 156.62 349.3"/><path class="cls-1" d="M177.62,349.3l-1.39-4.08h-7.54l-1.39,4.08h-3.87l6.98-19.96h4.34l7.12,19.96h-4.26ZM173.27,336.5c-.35-.98-.62-1.89-.83-2.75h-.03c-.24.86-.47,1.77-.8,2.75l-1.98,5.67h5.61l-1.98-5.67Z"/><path class="cls-1" d="M191,349.42c-2.07,0-3.87-.09-5.56-.15v-19.89c1.57-.06,3.99-.15,6.44-.15,6.18,0,10.11,2.75,10.11,9.76s-4.49,10.43-11,10.43M191.62,332.45c-.89,0-1.71.03-2.33.08v13.45c.53.09,1.33.15,2.1.15,3.75,0,6.48-2.13,6.48-6.86,0-4.29-1.69-6.83-6.24-6.83"/><polygon class="cls-1" points="206.62 349.3 206.62 329.35 217.47 329.35 217.47 332.57 210.46 332.57 210.46 337.48 217.11 337.48 217.11 340.61 210.46 340.61 210.46 346.02 217.47 346.02 217.47 349.3 206.62 349.3"/></g></svg>