<?xml version="1.0" encoding="utf-8"?>
<!-- Generator: Adobe Illustrator 28.3.0, SVG Export Plug-In . SVG Version: 6.00 Build 0)  -->
<svg version="1.1" id="Layer_1" xmlns="http://www.w3.org/2000/svg" xmlns:xlink="http://www.w3.org/1999/xlink" x="0px" y="0px"
	 viewBox="0 0 512 512" style="enable-background:new 0 0 512 512;" xml:space="preserve">
<style type="text/css">
	.st0{fill:#FFFFFF;}
</style>
<path class="st0" d="M3.8,481.7V438l41.7-4.6c9.2-1.5,10.7-3.4,10.7-13.6V84.3c0-10.2-1.5-12.9-10.7-13.6L3.8,65.8V21.7h195.8v44.2
	l-55.1,5.6c-10,0-10.7,3.4-10.7,12.9V424h148.5c7.5,0,9.5,0,10.7-7.3l10.7-64.8h55.8V482L3.8,481.7L3.8,481.7z M468.5,489.7
	c-27.2,0-41-12.9-41-39.1c1.7-22.4,21.3-39.2,43.8-37.5c20,1.6,36,17.5,37.5,37.5c2.2,19.4-11.8,37-31.2,39.2
	C474.6,490.2,471.5,490.2,468.5,489.7L468.5,489.7z"/>
</svg>
