<?xml version="1.0" encoding="UTF-8"?><svg id="Layer_1" xmlns="http://www.w3.org/2000/svg" viewBox="0 0 512 512"><defs><style>.cls-1{fill:#fff;}.cls-1,.cls-2{stroke-width:0px;}.cls-2{fill:#ea571a;}</style></defs><rect class="cls-2" width="512" height="512"/><path class="cls-1" d="M36.68,452.36v-38l36.31-4.01c8.02-1.27,9.29-2.96,9.29-11.82V106.58c0-8.87-1.27-11.19-9.29-11.82l-36.31-4.22v-38.42h170.36v38.42l-47.92,4.86c-8.66,0-9.29,2.96-9.29,11.19v295.54h129.19c6.54,0,8.23,0,9.29-6.33l9.29-56.36h48.55v113.15l-309.47-.21ZM440.93,459.33c-23.64,0-35.68-11.19-35.68-33.99,1.51-19.53,18.56-34.14,38.09-32.63,17.43,1.35,31.28,15.2,32.63,32.63,1.92,16.91-10.23,32.18-27.14,34.11-2.63.3-5.29.26-7.9-.12Z"/></svg>