<?xml version="1.0" encoding="UTF-8"?><svg id="Layer_1" xmlns="http://www.w3.org/2000/svg" viewBox="0 0 712.45 737.52"><defs><style>.cls-1{fill:#fa5507;stroke-width:0px;}</style></defs><path class="cls-1" d="M710.13,631.07L554.85,51.47c-8.17-29.58-34.82-50.92-66.48-50.92-6.3,0-12.38.85-18.17,2.43l.47-.1-72.42,19.4c-8.13,2.35-15.22,5.9-21.5,10.5l.2-.13C364.7,12.98,343.23.08,318.7,0h-74.95c-19.72.03-37.5,8.43-49.95,21.82l-.05.05C181.25,8.45,163.48.05,143.75.02h-75C30.8.07.05,30.83,0,68.78v600c.05,37.95,30.8,68.7,68.75,68.75h75c19.72-.05,37.5-8.42,49.95-21.82l.05-.05c12.5,13.45,30.27,21.82,50,21.88h74.95c37.95-.05,68.7-30.8,68.75-68.75V247.57l117.47,438.5c8.17,29.55,34.8,50.87,66.4,50.93h.12c6.27,0,12.35-.85,18.13-2.45l-.47.12,72.45-19.37c29.55-8.15,50.9-34.8,50.9-66.42,0-6.3-.85-12.42-2.45-18.23l.12.47v-.05ZM416.6,211.47l132.75-35.58,93.83,350.17-132.78,35.55-93.8-350.15ZM407.93,58.52l72.4-19.4c2.43-.67,5.22-1.07,8.13-1.07,14.38,0,26.48,9.72,30.1,22.95l.05.23,21.02,78.47-132.78,35.58-19.45-72.62v-26.37c3.82-8.68,11.22-15.17,20.3-17.7l.23-.05h0ZM243.73,37.52h74.95c17.25.02,31.22,14,31.25,31.25v81.23l-137.45.02v-81.25c.03-17.25,14-31.23,31.25-31.25h0ZM174.98,550.02H37.48V187.52l137.5-.03v362.53ZM212.48,187.52l137.45-.03v362.53h-137.45V187.52ZM68.73,37.52h75c17.25.02,31.22,14,31.25,31.25v81.23l-137.5.02v-81.25c.02-17.25,14-31.23,31.25-31.25h0ZM143.73,700.02h-75c-17.25-.02-31.23-14-31.25-31.25v-81.25h137.5v81.25c-.03,17.25-14,31.23-31.25,31.25h0ZM318.68,700.02h-74.95c-17.25-.02-31.22-14-31.25-31.25v-81.25h137.45v81.25c-.03,17.25-14,31.23-31.25,31.25h0ZM670.73,664.42c-4.1,7.12-10.75,12.38-18.67,14.55l-.23.05-72.45,19.37c-2.4.65-5.15,1.03-7.98,1.03-14.38,0-26.5-9.67-30.2-22.88l-.05-.23-21.02-78.5,132.77-35.55,21.02,78.5c.68,2.4,1.05,5.18,1.05,8.02,0,5.75-1.57,11.15-4.33,15.75l.08-.15v.03Z"/></svg>