<?xml version="1.0" encoding="UTF-8"?><svg id="Layer_1" xmlns="http://www.w3.org/2000/svg" viewBox="0 0 485.89 503"><defs><style>.cls-1{fill:#fff;stroke-width:0px;}</style></defs><path class="cls-1" d="M484.31,430.39L378.41,35.1C372.83,14.93,354.66.38,333.07.38c-4.3,0-8.44.58-12.39,1.66l.32-.07-49.39,13.23c-5.54,1.6-10.38,4.02-14.66,7.16l.14-.09C248.72,8.85,234.08.05,217.35,0h-51.12c-13.45.02-25.57,5.75-34.07,14.88l-.03.03C123.61,5.76,111.49.03,98.04.01h-51.15C21.01.05.03,21.03,0,46.91v409.2c.03,25.88,21.01,46.85,46.89,46.89h51.15c13.45-.03,25.57-5.74,34.07-14.88l.03-.03c8.52,9.17,20.64,14.88,34.1,14.92h51.12c25.88-.03,46.85-21.01,46.89-46.89V168.84l80.11,299.06c5.57,20.15,23.73,34.69,45.28,34.73h.08c4.28,0,8.42-.58,12.36-1.67l-.32.08,49.41-13.21c20.15-5.56,34.71-23.73,34.71-45.3,0-4.3-.58-8.47-1.67-12.43l.08.32v-.03h0ZM284.12,144.22l90.54-24.27,63.99,238.81-90.56,24.24-63.97-238.8h0ZM278.21,39.91l49.38-13.23c1.66-.46,3.56-.73,5.54-.73,9.81,0,18.06,6.63,20.53,15.65l.03.16,14.34,53.52-90.56,24.27-13.26-49.53v-17.98c2.61-5.92,7.65-10.35,13.84-12.07l.16-.03h0ZM166.22,25.59h51.12c11.76.01,21.29,9.55,21.31,21.31v55.4h-93.74s0-55.4,0-55.4c.02-11.76,9.55-21.3,21.31-21.31h0ZM119.34,375.11H25.56V127.89l93.77-.02v247.24ZM144.91,127.89l93.74-.02v247.24h-93.74V127.89ZM46.87,25.59h51.15c11.76.01,21.29,9.55,21.31,21.31v55.4H25.56s0-55.4,0-55.4c.01-11.76,9.55-21.3,21.31-21.31h0ZM98.02,477.41h-51.15c-11.76-.01-21.3-9.55-21.31-21.31v-55.41h93.77v55.41c-.02,11.76-9.55,21.3-21.31,21.31h0ZM217.34,477.41h-51.12c-11.76-.01-21.29-9.55-21.31-21.31v-55.41h93.74v55.41c-.02,11.76-9.55,21.3-21.31,21.31h0ZM457.44,453.13c-2.8,4.86-7.33,8.44-12.73,9.92l-.16.03-49.41,13.21c-1.64.44-3.51.7-5.44.7-9.81,0-18.07-6.59-20.6-15.6l-.03-.16-14.34-53.54,90.55-24.24,14.34,53.54c.46,1.64.72,3.53.72,5.47,0,3.92-1.07,7.6-2.95,10.74l.05-.1v.02h0Z"/></svg>