<?xml version="1.0" encoding="UTF-8"?><svg id="Layer_1" xmlns="http://www.w3.org/2000/svg" viewBox="0 0 421.61 502.93"><defs><style>.cls-1{fill:#fff;stroke-width:0px;}</style></defs><path id="path14" class="cls-1" d="M270.7,440.68c.77-4.83.96-354.2.23-361.83-59.36,14.14-118.64,28.27-178.16,42.45v246.28c-30.64,11.98-61.18,23.9-91.7,35.82-.2-.11-.36-.17-.52-.28-.13-.1-.31-.25-.32-.38-.1-.92-.22-1.84-.22-2.78-.01-99.51-.01-199.04-.01-298.3,1.37-1.68,3.13-1.9,4.67-2.46C91.91,66.52,179.17,33.88,266.42,1.21c3.02-1.13,5.76-1.69,9.11-.7,47.87,13.89,95.79,27.63,143.7,41.41.7.21,1.39.46,2.38.77v419.44c-13.76,3.82-27.39,7.65-41.04,11.41-34.74,9.58-69.5,19.09-104.21,28.74-3.4.95-6.37.88-9.71-.36-85.81-31.71-171.66-63.33-257.49-94.95-1.69-.63-3.35-1.33-4.78-2.84,88.77,12.19,177.55,24.36,266.31,36.54h0Z"/></svg>