<?xml version="1.0" encoding="UTF-8"?><svg id="Layer_1" xmlns="http://www.w3.org/2000/svg" viewBox="0 0 498.26 435.36"><defs><style>.cls-1{fill:#fff;}.cls-1,.cls-2{stroke-width:0px;}.cls-2{fill:#808386;}</style></defs><path id="s-floor" class="cls-2" d="M473.23,359.86l11.41-15.82-11.82-9.41,4.4-7.22s-58.07-40.04-72.29-49.66c-14.21-9.62-24.84-18.63-30.23-24.84-5.42-6.2-13.23-19.62-15.63-27.43-2.4-7.81-5.81-17.03-5.81-28.03V0h-121.36v.39h-76.89v-.39h-.81v201.45s-3.6,40.46-50.87,72.9C56.09,306.79,0,343.04,0,343.04l51.28,58.67,12.37-2.91,16.67,24.55,93.33-34.05,9.81,23.83s23.03-12.22,44.65-23.43c21.64-11.22,46.94-11.29,63.68-4.19,17.78,7.53,123.36,49.85,123.36,49.85l11.01-14.41,30.65,12.62,41.45-55.88-25.02-17.83Z"/><g id="s-label"><path class="cls-1" d="M241.11,264.9c-7.73,0-13.98-.74-19.76-2.2l1.84-18.17c5.4,2.22,11.54,3.69,18.4,3.69,6.13,0,11.29-2.57,11.29-8.58,0-14.11-33.13-6.87-33.13-34.6,0-15.58,11.9-25.89,32.76-25.89,4.29,0,10.3.5,15.09,1.6l-1.72,16.68c-4.54-1.59-9.2-2.45-14.24-2.45-7.85,0-11.41,3.19-11.41,7.85,0,12.88,33.74,8.1,33.74,34.35,0,15.83-13.37,27.73-32.88,27.73"/><path class="cls-1" d="M124.74,311.64c-3.08,0-5.7-.32-8-.93l.72-6.41c2.25.92,4.77,1.48,7.54,1.48,3.13,0,5.8-1.28,5.8-4.51,0-6.61-14.57-3.58-14.57-14.98,0-6.15,4.72-10.41,13.08-10.41,1.9,0,4.31.26,6.26.67l-.62,5.84c-1.89-.61-3.9-.98-5.95-.98-3.89,0-5.69,1.7-5.69,4.16,0,6.21,14.82,3.9,14.82,14.87,0,6.41-5.38,11.19-13.39,11.19"/><polygon class="cls-1" points="157.25 282.14 157.25 311.07 150.58 311.07 150.58 282.14 141.6 282.14 141.6 276.44 166.23 276.44 166.23 282.14 157.25 282.14"/><path class="cls-1" d="M186.06,311.64c-10.93,0-13.39-5.95-13.39-12.57v-22.63h6.67v22.21c0,4.36,1.43,7.45,7.17,7.45,5.13,0,7.29-2.16,7.29-8.06v-21.6h6.62v21.19c0,9.44-5.24,14.01-14.37,14.01"/><path class="cls-1" d="M220.55,311.28c-3.59,0-6.72-.16-9.64-.25v-34.53c2.72-.1,6.92-.26,11.18-.26,10.73,0,17.55,4.78,17.55,16.94s-7.8,18.11-19.08,18.11M221.63,281.83c-1.54,0-2.98.06-4.05.15v23.35c.92.15,2.31.25,3.64.25,6.52,0,11.24-3.69,11.24-11.9,0-7.44-2.93-11.85-10.83-11.85"/><polygon class="cls-1" points="247.66 311.07 247.66 276.44 266.49 276.44 266.49 282.03 254.33 282.03 254.33 290.55 265.87 290.55 265.87 295.98 254.33 295.98 254.33 305.37 266.49 305.37 266.49 311.07 247.66 311.07"/><path class="cls-1" d="M295.56,311.07l-10.16-17.49c-1.49-2.62-2.72-5.19-3.75-7.45.21,2.98.31,8.41.31,12.57v12.36h-6.46v-34.63h8.67l9.64,16.53c1.6,2.67,2.98,5.54,4.26,8.15-.25-3.49-.36-9.64-.36-13.9v-10.78h6.46v34.63h-8.62Z"/><polygon class="cls-1" points="326.42 282.14 326.42 311.07 319.75 311.07 319.75 282.14 310.77 282.14 310.77 276.44 335.39 276.44 335.39 282.14 326.42 282.14"/><path class="cls-1" d="M348.61,311.64c-3.08,0-5.7-.32-8-.93l.72-6.41c2.25.92,4.77,1.48,7.54,1.48,3.13,0,5.8-1.28,5.8-4.51,0-6.61-14.57-3.58-14.57-14.98,0-6.15,4.72-10.41,13.08-10.41,1.9,0,4.31.26,6.26.67l-.62,5.84c-1.89-.61-3.9-.98-5.95-.98-3.89,0-5.69,1.7-5.69,4.16,0,6.21,14.82,3.9,14.82,14.87,0,6.41-5.38,11.19-13.39,11.19"/><path class="cls-1" d="M370.91,289.27l-2.67-2.42c3.48-3.74,3.69-5.99,2.05-7.9-1.89-2.25-.51-6.21,3.08-6.21,4.81,0,7.07,8.16-2.47,16.52"/><path class="cls-1" d="M178.34,362.9c-10.93,0-13.39-5.95-13.39-12.56v-22.62h6.67v22.21c0,4.36,1.43,7.44,7.17,7.44,5.13,0,7.29-2.15,7.29-8.05v-21.59h6.62v21.19c0,9.44-5.24,14-14.37,14"/><path class="cls-1" d="M223.25,362.34l-10.16-17.49c-1.49-2.62-2.72-5.19-3.75-7.44.21,2.98.31,8.41.31,12.57v12.37h-6.46v-34.63h8.67l9.65,16.52c1.59,2.67,2.98,5.54,4.26,8.16-.26-3.49-.36-9.64-.36-13.9v-10.77h6.46v34.63h-8.62Z"/><rect class="cls-1" x="242.56" y="327.71" width="6.67" height="34.63"/><path class="cls-1" d="M272.82,362.9c-10.57,0-15.75-6.72-15.75-17.44,0-11.44,7.64-18.32,16.93-18.32s15.75,5.55,15.75,17.4-7.54,18.36-16.93,18.36M273.38,333.14c-4.77,0-9.19,3.8-9.19,11.6,0,7.33,2.88,12.11,9.09,12.11,4.51,0,9.34-3.49,9.34-11.81,0-7.68-3.29-11.9-9.24-11.9"/><path class="cls-1" d="M317.63,362.34l-10.16-17.49c-1.49-2.62-2.72-5.19-3.75-7.44.21,2.98.31,8.41.31,12.57v12.37h-6.46v-34.63h8.67l9.65,16.52c1.59,2.67,2.98,5.54,4.26,8.16-.26-3.49-.36-9.64-.36-13.9v-10.77h6.46v34.63h-8.62Z"/></g></svg>