<?xml version="1.0" encoding="UTF-8"?><svg id="Layer_1" xmlns="http://www.w3.org/2000/svg" viewBox="0 0 501 437.06"><defs><style>.cls-1{fill:#fff;stroke-width:0px;}</style></defs><path class="cls-1" d="M492.59,228.56c1.33-.14,2.53-.78,3.36-1.81.84-1.03,1.21-2.36,1.07-3.67-.99-8.46-1.99-16.91-2.97-25.37l-2.06-17.71c-.31-2.64-2.68-4.57-5.34-4.33h-3.83s.07-59.45.07-59.45l2-.73,6.68-2.41c5.66-2.05,9.43-7.41,9.43-13.43s-3.77-11.38-9.43-13.43L255.35.85c-3.14-1.14-6.58-1.14-9.71,0L9.42,86.22c-5.66,2.05-9.42,7.42-9.42,13.43s3.77,11.38,9.42,13.43l87.32,31.56c-6.16,19.46-8.97,41.74-8.72,66.55,1.54,141.5,83.68,225.88,159.68,225.88s158.15-84.38,159.68-225.88c.25-24.04-2.4-45.7-8.16-64.73l63.5-22.95.13,52.18h-3.84c-2.66-.23-5.03,1.68-5.34,4.35l-4.97,43.09c-.15,1.31.24,2.62,1.07,3.66.83,1.03,2.04,1.69,3.36,1.8M247.72,402.7c-66.31,0-112.07-77.68-121.3-155.33-8.53-71.81,95.32-75.16,101.35-30.65,1.86,13.68-13.85,28.34-12.07,33.99,8.79,27.9,154.31-91.06,153.32-3.38-.7,61.9-58.12,155.37-121.3,155.37Z"/></svg>