<?xml version="1.0" encoding="UTF-8"?><svg id="Layer_1" xmlns="http://www.w3.org/2000/svg" viewBox="0 0 501 441.36"><defs><style>.cls-1{fill:#fff;stroke-width:0px;}</style></defs><path class="cls-1" d="M473.42,212.68h-2.96c.46-1.44.72-2.98.72-4.57v-85.66h-19.35l12.67-21.67c4.16-7.11,1.76-16.24-5.35-20.4-7.11-4.16-16.24-1.76-20.4,5.35l-18.19,31.11c-1.04,1.78-1.67,3.68-1.92,5.6h-5.76v-44.47c0-8.24-6.68-14.91-14.91-14.91s-14.91,6.68-14.91,14.91v44.47h-12.23v-58.62c0-8.24-6.68-14.91-14.91-14.91s-14.91,6.68-14.91,14.91v58.62h-13.29v85.66c0,1.6.26,3.13.72,4.57h-150.05v-10.82h62.15c20.55,0,37.28-16.72,37.28-37.28V37.28c0-20.55-16.72-37.28-37.28-37.28H37.28C16.72,0,0,16.72,0,37.28v127.3c0,20.55,16.72,37.28,37.28,37.28h62.15v10.82h-59.52c-15.21,0-27.58,12.37-27.58,27.58v41.32c0,15.21,12.37,27.58,27.58,27.58h12.84v132.18h94.51v-132.18h218.81v132.18h94.51v-132.18h12.84c15.21,0,27.58-12.37,27.58-27.58v-41.32c0-15.21-12.37-27.58-27.58-27.58ZM37.28,29.82h203.26c4.04,0,7.46,3.41,7.46,7.46v91.23H29.82V37.28c0-4.04,3.41-7.46,7.46-7.46ZM29.82,164.58v-6.25h218.18v6.25c0,4.04-3.41,7.46-7.46,7.46H37.28c-4.04,0-7.46-3.41-7.46-7.46ZM117.43,411.54h-34.86v-102.33h34.86v102.33ZM430.75,411.54h-34.87v-102.33h34.87v102.33ZM357.55,208.11v-55.84h83.81v55.84c0,1.6.26,3.13.72,4.57h-85.25c.46-1.44.72-2.98.72-4.57ZM129.24,206.33h19.33v6.35h-19.33v-6.35ZM471.18,279.35H42.14v-36.85h429.04v36.85Z"/></svg>