<?xml version="1.0" encoding="UTF-8"?><svg id="Capa_1" xmlns="http://www.w3.org/2000/svg" viewBox="0 0 800 688.32"><defs><style>.cls-1{fill:#fa5507;stroke-width:0px;}</style></defs><path class="cls-1" d="M550.88,175.92v-22.22c0-9.75-7.9-17.66-17.66-17.66s-17.66,7.9-17.66,17.66v22.22c0,9.75,7.9,17.66,17.66,17.66s17.66-7.9,17.66-17.66Z"/><path class="cls-1" d="M466.3,193.58c5.54,0,10.99-2.6,14.43-7.46l15.71-22.22c5.63-7.96,3.74-18.98-4.23-24.61-7.96-5.63-18.98-3.74-24.61,4.22l-15.71,22.22c-5.63,7.96-3.74,18.98,4.22,24.61,3.1,2.19,6.65,3.24,10.18,3.24Z"/><path class="cls-1" d="M600.16,193.58c3.52,0,7.08-1.05,10.17-3.24,7.96-5.63,9.85-16.65,4.23-24.61l-15.71-22.22c-5.63-7.96-16.65-9.86-24.61-4.22-7.96,5.63-9.85,16.65-4.22,24.61l15.71,22.22c3.44,4.87,8.89,7.46,14.43,7.46Z"/><path class="cls-1" d="M531.2,321.27h-262.41c-9.75,0-17.66,7.9-17.66,17.66v193.76c0,9.75,7.9,17.66,17.66,17.66h262.41c9.75,0,17.66-7.9,17.66-17.66v-193.76c0-9.75-7.9-17.66-17.66-17.66ZM382.34,515.03h-95.89v-158.45h95.89v158.45ZM513.55,515.03h-95.9v-158.45h95.9v158.45h0Z"/><path class="cls-1" d="M799.96,609.8l-23.54-350.35c-.62-9.27-8.32-16.47-17.61-16.47h-40.49l70.02-99.18c2.99-4.24,3.97-9.58,2.67-14.6-1.3-5.02-4.74-9.22-9.41-11.48l-169.89-82.12C592.53,13.79,564.47,0,533.23,0c-57.64,0-104.54,46.9-104.54,104.54,0,9.75,7.9,17.66,17.66,17.66h173.77s.03,0,.04,0c9.75,0,17.66-7.9,17.66-17.66,0-.48-.02-.95-.05-1.42-.08-5.61-.61-11.1-1.54-16.45l111.26,53.78-72.39,102.53H41.2c-9.29,0-16.99,7.2-17.62,16.47L.04,609.8c-.01.2-.04.99-.04,1.18v59.69c0,9.75,7.9,17.66,17.66,17.66h764.69c9.75,0,17.66-7.9,17.66-17.66v-59.69c0-.19-.03-.98-.04-1.18ZM466.28,86.89c7.82-29.65,34.88-51.58,66.95-51.58s59.12,21.93,66.95,51.58h-133.9ZM57.7,278.28h592.46l-9.13,12.93c-37.61,4.73-66.81,36.9-66.81,75.77,0,9.75,7.9,17.66,17.66,17.66h117.47s.04,0,.05,0c9.75,0,17.66-7.9,17.66-17.66,0-.5-.02-.99-.06-1.48-.59-30.93-19.65-57.4-46.58-68.85l12.97-18.37h48.91l21.17,315.04H36.54l21.17-315.04ZM687.7,349.33h-74.18c6.62-13.84,20.75-23.43,37.09-23.43s30.48,9.58,37.09,23.43ZM764.69,653.01H35.31v-24.38h729.38v24.38Z"/></svg>