<?xml version="1.0" encoding="UTF-8"?><svg id="Layer_1" xmlns="http://www.w3.org/2000/svg" viewBox="0 0 338.32 481.98"><defs><style>.cls-1{fill:#fff;}.cls-1,.cls-2{stroke-width:0px;}.cls-2{fill:#808386;}</style></defs><polygon id="t-floor" class="cls-2" points="250.77 468.67 250.77 481.98 338.32 481.98 338.32 461.39 338.32 370.06 338.32 33.44 338.32 0 0 0 0 370.06 110.51 370.06 110.51 468.67 250.77 468.67"/><g id="t-label"><polygon class="cls-1" points="166.27 118.33 166.27 165.37 152.82 165.37 152.82 118.33 138.76 118.33 138.76 106.78 180.33 106.78 180.33 118.33 166.27 118.33"/><path class="cls-1" d="M75.69,205.35c-2.18,0-4.03-.22-5.66-.65l.51-4.54c1.59.65,3.37,1.05,5.33,1.05,2.21,0,4.1-.91,4.1-3.19,0-4.68-10.31-2.54-10.31-10.6,0-4.35,3.34-7.36,9.25-7.36,1.34,0,3.05.18,4.43.47l-.44,4.14c-1.34-.43-2.76-.69-4.21-.69-2.76,0-4.03,1.2-4.03,2.94,0,4.39,10.49,2.76,10.49,10.53,0,4.53-3.81,7.91-9.47,7.91"/><path class="cls-1" d="M100.97,205.24c-8.56,0-11.32-5.66-11.32-11.76,0-7.77,4.07-13.25,12.26-13.25,1.75,0,3.63.25,5.23.72l-.65,4.32c-1.48-.54-3.15-.83-4.82-.83-4.57,0-6.82,3.45-6.82,8.24,0,5.3,2.21,8.27,7.15,8.27,1.49,0,3.38-.4,4.65-1.01l.73,4.17c-1.81.69-4.1,1.13-6.39,1.13"/><rect class="cls-1" x="113.37" y="180.46" width="4.72" height="24.5"/><polygon class="cls-1" points="125.66 204.95 125.66 180.46 138.98 180.46 138.98 184.41 130.38 184.41 130.38 190.44 138.55 190.44 138.55 194.28 130.38 194.28 130.38 200.92 138.98 200.92 138.98 204.95 125.66 204.95"/><path class="cls-1" d="M159.55,204.95l-7.19-12.38c-1.05-1.85-1.93-3.67-2.65-5.26.15,2.11.22,5.95.22,8.89v8.75h-4.57v-24.5h6.13l6.83,11.69c1.12,1.89,2.11,3.92,3.01,5.77-.18-2.47-.25-6.82-.25-9.84v-7.62h4.57v24.5h-6.1Z"/><path class="cls-1" d="M182.69,205.24c-8.56,0-11.32-5.66-11.32-11.76,0-7.77,4.07-13.25,12.26-13.25,1.75,0,3.63.25,5.23.72l-.65,4.32c-1.48-.54-3.15-.83-4.82-.83-4.57,0-6.82,3.45-6.82,8.24,0,5.3,2.21,8.27,7.15,8.27,1.49,0,3.38-.4,4.65-1.01l.73,4.17c-1.81.69-4.1,1.13-6.39,1.13"/><polygon class="cls-1" points="195.08 204.95 195.08 180.46 208.41 180.46 208.41 184.41 199.8 184.41 199.8 190.44 207.97 190.44 207.97 194.28 199.8 194.28 199.8 200.92 208.41 200.92 208.41 204.95 195.08 204.95"/><path class="cls-1" d="M246.31,205.79c-1.63-1.12-3.7-2.62-4.97-3.63-2.32,1.81-5.51,3.19-9.43,3.19-5.66,0-8.24-3.3-8.24-7.19,0-3.15,1.85-5.41,4.61-7.54-2.21-2.62-3.08-4.36-3.08-6.46,0-3.23,2.54-5.99,7.22-5.99,4.17,0,6.46,2.14,6.46,5.34,0,2.54-1.34,4.65-4.32,7.01,1.74,1.74,4.25,3.99,6.57,5.81v.04c1.45-2.21,2.29-5.12,2.18-8.02h4.61c.07,3.81-1.09,7.58-3.31,10.52,1.6,1.2,3.45,2.54,4.76,3.42l-3.05,3.52ZM230.99,193.38c-1.78,1.52-2.5,2.83-2.5,4.21,0,2,1.56,3.81,4.21,3.81,2.14,0,3.92-.8,5.23-1.78-2.47-1.99-5.26-4.53-6.93-6.24M232.05,181.65c-1.34,0-2.28.91-2.28,2.25,0,1.02.54,2.21,2.07,4,1.53-1.31,2.47-2.54,2.47-4.06,0-1.2-.69-2.18-2.25-2.18"/><polygon class="cls-1" points="54.13 220.75 54.13 241.22 49.41 241.22 49.41 220.75 43.06 220.75 43.06 216.72 60.48 216.72 60.48 220.75 54.13 220.75"/><polygon class="cls-1" points="65 241.22 65 216.72 78.33 216.72 78.33 220.68 69.72 220.68 69.72 226.7 77.89 226.7 77.89 230.55 69.72 230.55 69.72 237.19 78.33 237.19 78.33 241.22 65 241.22"/><path class="cls-1" d="M94.86,241.51c-8.56,0-11.32-5.66-11.32-11.76,0-7.77,4.07-13.25,12.26-13.25,1.75,0,3.63.25,5.23.72l-.65,4.32c-1.48-.54-3.15-.83-4.82-.83-4.57,0-6.82,3.45-6.82,8.24,0,5.3,2.21,8.27,7.15,8.27,1.49,0,3.38-.4,4.65-1.01l.73,4.17c-1.81.69-4.1,1.13-6.39,1.13"/><polygon class="cls-1" points="122.36 241.22 122.36 230.59 111.98 230.59 111.98 241.22 107.26 241.22 107.26 216.72 111.98 216.72 111.98 226.53 122.36 226.53 122.36 216.72 127.08 216.72 127.08 241.22 122.36 241.22"/><path class="cls-1" d="M148.87,241.22l-7.19-12.38c-1.05-1.85-1.93-3.67-2.65-5.26.15,2.11.22,5.95.22,8.89v8.75h-4.57v-24.5h6.13l6.83,11.69c1.12,1.89,2.11,3.92,3.01,5.77-.18-2.47-.25-6.82-.25-9.84v-7.62h4.57v24.5h-6.1Z"/><path class="cls-1" d="M171.65,241.62c-7.48,0-11.14-4.76-11.14-12.34,0-8.09,5.41-12.96,11.97-12.96s11.14,3.92,11.14,12.3-5.33,12.99-11.97,12.99M172.05,220.57c-3.38,0-6.5,2.69-6.5,8.2,0,5.19,2.04,8.56,6.42,8.56,3.2,0,6.61-2.47,6.61-8.35,0-5.44-2.32-8.42-6.54-8.42"/><polygon class="cls-1" points="189.15 241.22 189.15 216.72 193.87 216.72 193.87 237.08 201.82 237.08 201.82 241.22 189.15 241.22"/><path class="cls-1" d="M215.57,241.62c-7.48,0-11.14-4.76-11.14-12.34,0-8.09,5.41-12.96,11.97-12.96s11.14,3.92,11.14,12.3-5.33,12.99-11.97,12.99M215.96,220.57c-3.38,0-6.5,2.69-6.5,8.2,0,5.19,2.04,8.56,6.42,8.56,3.2,0,6.61-2.47,6.61-8.35,0-5.44-2.32-8.42-6.54-8.42"/><path class="cls-1" d="M244.22,241.59c-7.77,0-12.38-4.57-12.38-12.05s5.22-13.17,13.61-13.17c2.54,0,4.97.43,6.93,1.05l-.94,4.28c-1.85-.73-3.96-1.13-6.28-1.13-4.78,0-8.2,3.05-8.2,8.53,0,5.19,2.83,8.24,7.8,8.24,1.16,0,2.18-.15,3.12-.43v-8.53h4.72v11.68c-2.44.98-5.45,1.53-8.39,1.53"/><path class="cls-1" d="M268.69,232.55v8.67h-4.72v-8.64l-7.66-15.86h5.16l3.23,7.04c.65,1.45,1.2,2.8,1.67,4.07h.08c.51-1.42,1.23-2.98,1.96-4.54l3.09-6.57h5.01l-7.8,15.83Z"/><path class="cls-1" d="M84.51,277.56c-1.45,0-4.1-.07-7.19-.07v-24.46c2.07-.11,5.16-.18,8.13-.18,5.26,0,8.2,2.14,8.2,6.06,0,2.43-1.34,4.54-3.7,5.48v.07c2.9.62,4.39,3.01,4.39,5.48,0,3.56-2.43,7.62-9.84,7.62M84.68,256.66c-1.01,0-1.81.04-2.65.08v6.39c.58.04,1.16.04,1.93.04,3.23,0,4.68-1.31,4.68-3.48,0-1.81-1.05-3.01-3.96-3.01M84.11,266.68c-.36,0-1.56,0-2.07.04v6.86c.58.07,1.53.14,2.61.14,3.09,0,4.65-1.45,4.65-3.66,0-2.4-2.11-3.38-5.19-3.38"/><path class="cls-1" d="M109.64,277.89c-7.73,0-9.47-4.21-9.47-8.89v-16.01h4.72v15.71c0,3.08,1.01,5.26,5.08,5.26,3.63,0,5.16-1.53,5.16-5.7v-15.28h4.68v14.99c0,6.68-3.7,9.91-10.16,9.91"/><rect class="cls-1" x="127.22" y="252.99" width="4.72" height="24.5"/><polygon class="cls-1" points="139.52 277.49 139.52 252.99 144.23 252.99 144.23 273.35 152.18 273.35 152.18 277.49 139.52 277.49"/><path class="cls-1" d="M163.71,277.64c-2.54,0-4.75-.11-6.82-.18v-24.43c1.92-.07,4.9-.18,7.91-.18,7.59,0,12.42,3.38,12.42,11.97s-5.52,12.82-13.5,12.82M164.47,256.8c-1.09,0-2.11.04-2.87.11v16.52c.65.11,1.63.18,2.58.18,4.61,0,7.95-2.61,7.95-8.42,0-5.26-2.07-8.39-7.66-8.39"/><rect class="cls-1" x="182.89" y="252.99" width="4.72" height="24.5"/><path class="cls-1" d="M209.38,277.49l-7.19-12.38c-1.05-1.85-1.93-3.67-2.65-5.26.15,2.11.22,5.95.22,8.89v8.75h-4.57v-24.5h6.13l6.83,11.69c1.12,1.89,2.11,3.92,3.01,5.77-.18-2.47-.25-6.82-.25-9.84v-7.62h4.57v24.5h-6.1Z"/><path class="cls-1" d="M233.5,277.85c-7.77,0-12.38-4.57-12.38-12.05s5.22-13.17,13.61-13.17c2.54,0,4.97.43,6.93,1.05l-.94,4.28c-1.85-.73-3.96-1.13-6.28-1.13-4.78,0-8.2,3.05-8.2,8.53,0,5.19,2.83,8.24,7.8,8.24,1.16,0,2.18-.15,3.12-.43v-8.53h4.72v11.68c-2.44.98-5.45,1.53-8.39,1.53"/></g></svg>